<svg xmlns="http://www.w3.org/2000/svg" viewBox="0 0 191.28 187.24"><defs><style>.cls-1,.cls-3{fill:#201412;}.cls-1{stroke:#201412;stroke-miterlimit:10;stroke-width:1.2px;}.cls-1,.cls-2{fill-rule:evenodd;}.cls-2{fill:#fff;}.cls-4{fill:#fbcb72;}.cls-5{fill:#fdd469;}</style></defs><g id="圖層_2" data-name="圖層 2"><g id="圖層_1-2" data-name="圖層 1"><path class="cls-1" d="M190.68,117v5c-.11.66-.23,1.32-.32,2a89.7,89.7,0,0,0-.32,17.57,64.82,64.82,0,0,1,.05,11.23,54.45,54.45,0,0,1-2.61,9.91,23.15,23.15,0,0,1-12.23,14.35c-2.71,1.34-5.35,2.8-8.06,4.14A31.17,31.17,0,0,1,163,183a67.38,67.38,0,0,1-11.3,2.3,123.94,123.94,0,0,1-15.48,1.27c-6.71.11-13.43.11-20.14,0-8.38-.19-16.76-.66-25.14-.86-8.63-.2-17.27-.19-25.9-.33-5-.09-10-.38-15-.43-3.19,0-6.36.17-9.55-.46-2.8-.56-5.71-.62-8.54-1.12-6.44-1.15-11.85-4.57-17.17-8.13a11.69,11.69,0,0,1-2.29-2.1c-4.42-5.22-7-11.4-9-17.82a45.17,45.17,0,0,1-1.87-14.53c.15-6.82-.18-13.66-.27-20.49,0-3.63,0-7.27,0-10.9-.06-4.83-.15-9.66-.3-14.5C1,92.79.76,90.74.6,88.68V70.92c.24-2.13.6-4.25.7-6.39.24-4.74.53-9.5.45-14.24A44.88,44.88,0,0,1,3.88,36.16,60.66,60.66,0,0,1,17.82,12.7,26,26,0,0,1,31.23,4.81c3-.69,6.09-1.25,9.15-1.78a46.67,46.67,0,0,1,4.74-.48c.54,0,1.1.25,1.64.19q7-.68,13.92-1.42C62.74,1.1,64.79.84,66.84.6h8.4c2.84.33,5.67.8,8.52,1,5.06.26,10.13.38,15.2.47,3.35.06,6.71,0,10.06-.05,5.11-.05,10.22-.14,15.32-.17,2.08,0,4.15.18,6.23.15,2.71-.05,5.42-.27,8.13-.32,8-.14,15.88,1.28,23.68,3,9.89,2.23,16.47,8.56,20.68,17.38,2.47,5.2,3.28,11,4,16.69.39,3.17.58,6.36.82,9.54.45,6.29,1.08,12.57,1.27,18.87.31,9.89-.53,19.8.37,29.7a59.13,59.13,0,0,1,.06,11.13C189.24,111.16,190,114,190.68,117Zm-62.36,56.64v-.07c1.09,0,2.17,0,3.24,0,3.47-.11,6.95-.12,10.4-.43,3.61-.32,7.2-1,10.79-1.44,3.82-.51,7.48-1.3,10.71-3.67a16.57,16.57,0,0,1,4.78-2.16,9.76,9.76,0,0,0,5.43-4.42c3.36-5.28,3.65-11.14,3.2-17.1A119.22,119.22,0,0,1,177,124c.27-2.86.6-5.7-.36-8.53a10,10,0,0,1-.3-2.85c-.09-5.2-.13-10.39-.22-15.59,0-2.47-.15-5-.2-7.43-.07-4-.14-8-.16-12,0-5.11.16-10.24-.06-15.34-.23-5.3-.77-10.59-1.32-15.87A113.9,113.9,0,0,0,172,30.32c-1.14-4.53-4.06-7.7-7.41-10.6a7.21,7.21,0,0,0-2.89-1.36c-8.54-2.29-17.14-4-26.08-3.58-8.14.35-16.3.38-24.45.37-8.39,0-16.78-.19-25.17-.34-3-.05-6.08-.1-9.1-.33-2-.15-4-.94-6.11-.72-4.25.43-8.53.59-12.78,1-2.9.25-5.78.7-8.68,1-3.74.36-7.5.48-11.21,1A18.2,18.2,0,0,0,26,23.09a69.21,69.21,0,0,0-9.81,16.8,6.58,6.58,0,0,0-.49,2.2q-.62,9.31-1.13,18.64-.33,5.87-.52,11.73c-.11,3.91-.26,7.83-.16,11.74.17,6.34.71,12.68.78,19,.13,11.07-.08,22.15.05,33.22a88.9,88.9,0,0,0,1.06,13.35c.84,5.14,3.43,9.67,6.18,14A4,4,0,0,0,23.34,165c2.16,1.29,4.31,2.61,6.54,3.75A14.86,14.86,0,0,0,34,170.23c2.71.47,5.46.71,8.2,1a36,36,0,0,0,6.91.57A62.27,62.27,0,0,1,60,171.67c5.72.49,11.49.55,17.24.69,9.34.23,18.69.37,28,.57,3.11.06,6.23.13,9.34.27,1.5.06,3,.39,4.51.42C122.17,173.69,125.25,173.64,128.32,173.64Z"/><path class="cls-2" d="M128.94,173.72v-.08c1.08,0,2.16,0,3.24,0,3.46-.12,6.94-.12,10.39-.43,3.61-.33,7.2-1,10.8-1.45,3.81-.51,7.48-1.3,10.7-3.66a16.17,16.17,0,0,1,4.78-2.16,9.86,9.86,0,0,0,5.44-4.42c3.35-5.29,3.64-11.14,3.2-17.11a119.1,119.1,0,0,1,.09-20.34c.28-2.87.6-5.71-.35-8.54a9.63,9.63,0,0,1-.31-2.85c-.09-5.19-.13-10.39-.21-15.58,0-2.48-.16-5-.21-7.43-.07-4-.14-8-.16-12,0-5.11.17-10.23-.06-15.34-.23-5.3-.77-10.59-1.32-15.87A113.55,113.55,0,0,0,172.6,30.4c-1.13-4.53-4.06-7.71-7.4-10.61a7.56,7.56,0,0,0-2.89-1.36c-8.54-2.29-17.15-3.95-26.09-3.57-8.14.34-16.3.37-24.45.37-8.39,0-16.78-.2-25.17-.34-3-.06-6.07-.11-9.1-.34-2-.15-4-.94-6.11-.72-4.25.43-8.52.59-12.78,1-2.9.25-5.78.71-8.68,1-3.73.36-7.49.48-11.2,1a18.1,18.1,0,0,0-12.08,6.39A69,69,0,0,0,16.84,40a6.65,6.65,0,0,0-.5,2.2c-.4,6.22-.79,12.43-1.13,18.65-.21,3.9-.4,7.81-.51,11.73s-.27,7.82-.17,11.73c.17,6.35.71,12.69.79,19,.12,11.07-.09,22.15,0,33.22a89.13,89.13,0,0,0,1.06,13.36c.84,5.13,3.43,9.66,6.19,14A4,4,0,0,0,24,165.07c2.16,1.29,4.31,2.61,6.54,3.76a15.11,15.11,0,0,0,4.15,1.47c2.7.48,5.45.72,8.19,1a36,36,0,0,0,6.91.57,62.28,62.28,0,0,1,10.84-.14c5.73.49,11.49.55,17.24.69,9.34.23,18.69.38,28,.57,3.12.07,6.23.13,9.34.27,1.51.07,3,.39,4.51.43C122.79,173.77,125.86,173.72,128.94,173.72Z"/><path class="cls-3" d="M101.75,77.86c0-.34-.06-.81-.1-1.28a13.65,13.65,0,0,1,.35-4c.27-1.37.47-2.75.76-4.11a12,12,0,0,1,.91-3.2,11.92,11.92,0,0,1,2.51-3.68,2.91,2.91,0,0,1,2.14-.87,1.36,1.36,0,0,1,1.14.49,6.67,6.67,0,0,0,.84.73,5,5,0,0,1,1.24,2.29c.13.42.43.8.53,1.23.3,1.27,1,2.42.93,3.82a14.15,14.15,0,0,0,.39,2c.11,1.08.11,2.18.16,3.27s.12,2.09.19,3.13c.07,1.23.15,2.46.2,3.69,0,1,.06,1.93,0,2.9,0,.3-.14.59-.17.9-.11,1-.22,1.92-.31,2.89-.13,1.48-.27,2.95-.38,4.43-.08,1-.13,2-.18,3a.52.52,0,0,0,0,.31c.72.87.81,2.19,1.82,2.82.1.27.13.73.31.8.84.31.91,1.17,1.4,1.71s.61,1.34,1.29,1.8c.36.25.45.87.74,1.28a18.17,18.17,0,0,0,1.35,1.69c.42.46.44.44,1,.1l1,1.4a1.46,1.46,0,0,0-.56,0c-.11.06-.23.35-.19.41.37.49.78,1,1.18,1.44l.19-.16c-.14-.15-.34-.29-.4-.47a1.6,1.6,0,0,1,0-.61,1.77,1.77,0,0,1,.43.28,6.62,6.62,0,0,1,.66,1,9.42,9.42,0,0,1,.39,1.06l.22,0,.19.22-.51.49-.2-.1c.19.31.37.63.6,1l.62-.7a14,14,0,0,1,.92,1.4c.39.77.69,1.58,1,2.37,0,.09.18.14.27.21a2.2,2.2,0,0,1,.48.35c.6.82,1.17,1.66,1.77,2.48.28.39.42.72-.14.86a6.5,6.5,0,0,1,1.2.88c.53.62.95,1.34,1.44,2,.24.33.57.59.78.94.37.64.68,1.31,1,2,0,.06,0,.16.07.15.39,0,.44.21.32.46a4.3,4.3,0,0,1-.63.72v1.23a.84.84,0,0,1-1.09.24.9.9,0,0,1-.71-1,1.66,1.66,0,0,0-.23-.88c-.51-.87-1-1.72-1.58-2.57s-1.13-1.77-1.71-2.65c-.19-.28-.43-.53-.63-.82-.51-.72-1-1.44-1.5-2.17-.62-.92-1.23-1.85-1.82-2.79-.84-1.33-1.63-2.68-2.48-4-.48-.73-1.06-1.41-1.58-2.12q-1.56-2.11-3.08-4.24c-.56-.79-1.07-1.61-1.62-2.41a12.53,12.53,0,0,0-1.08-1.51,16.12,16.12,0,0,1-2.34-3.71,5.33,5.33,0,0,1-.65-1.28,1.82,1.82,0,0,1,.26-1.17,3.23,3.23,0,0,0,.45-1.64c.09-1.76.24-3.51.4-5.27a36.66,36.66,0,0,0,.29-6.79c-.21-2.34-.16-4.7-.34-7.05a23.23,23.23,0,0,0-.66-3.58c-.17-.7-.55-1.35-.73-2-.13-.51,0-1.08-.13-1.59a5.55,5.55,0,0,0-2-3.42,1.1,1.1,0,0,0-.87-.1A2.69,2.69,0,0,0,106,64.63c-.32,1.19-.69,2.37-1,3.57-.31,1.41-.57,2.84-.77,4.27-.3,2.14-.55,4.3-.76,6.46a4.81,4.81,0,0,0,.26,1.25c.19.92.36,1.85.54,2.77.1.54.24,1.07.3,1.62s.06,1.07.07,1.6c0,.35,0,.7,0,1a13,13,0,0,1,.07,1.52c0,.24-.32.46-.49.68-.29-.24-.79-.46-.83-.74-.16-1.12-.16-2.26-.25-3.38,0-.23-.21-.45-.25-.68-.11-.68-.17-1.37-.29-2a13.15,13.15,0,0,0-.41-1.78,1.23,1.23,0,0,0-1.16-.88,1,1,0,0,0-1,.91,25.84,25.84,0,0,0-.43,3.81c0,1.45.08,2.9.13,4.35,0,1.09,0,2.19.11,3.27a26.09,26.09,0,0,0,.69,4.23,14.14,14.14,0,0,0,1.36,2.76c.28.53.67,1,.91,1.54.53,1.17,1,2.38,1.49,3.54.66,1.48,1.38,2.94,2,4.42.37.81.65,1.67,1,2.49.09.22.31.38.41.6.21.51.35,1,.56,1.55.51,1.25,1,2.51,1.57,3.74.76,1.69,1.56,3.35,2.36,5,.16.34,0,.47-.26.55s-.72.21-1.08.3-.92-.38-1.17-1c-.51-1.24-1.08-2.45-1.64-3.66-.39-.83-.82-1.64-1.22-2.47-.86-1.83-1.75-3.65-2.55-5.5-.51-1.15-.86-2.36-1.3-3.54-.28-.72-.58-1.44-.9-2.15-.79-1.78-1.62-3.54-2.37-5.34-.36-.85-.6-1.74-.9-2.61a2.89,2.89,0,0,0-.27-.56,2.4,2.4,0,0,1-.28-1.41,21.61,21.61,0,0,0-.08-2.9c-.1-1.74-.25-3.47-.31-5.2,0-.64.2-1.29.19-1.93a24.36,24.36,0,0,1,.76-5,1.81,1.81,0,0,1,.84-1A13.07,13.07,0,0,1,101.75,77.86Z"/><path class="cls-3" d="M132.42,128.22a2,2,0,0,1-.66-.12,1.5,1.5,0,0,1-1.1-1.61,1,1,0,0,0-.15-.54c-.5-.86-1-1.7-1.56-2.54s-1.14-1.77-1.71-2.65c-.09-.13-.2-.26-.3-.39s-.22-.27-.32-.41c-.51-.72-1-1.45-1.51-2.18-.62-.93-1.24-1.87-1.83-2.81l-1-1.6c-.48-.8-1-1.6-1.48-2.39-.29-.44-.61-.85-1-1.29-.21-.27-.42-.53-.62-.8-1-1.44-2.08-2.84-3.08-4.25-.34-.48-.66-1-1-1.45-.21-.33-.43-.65-.65-1l-.26-.4a7.51,7.51,0,0,0-.76-1,13.44,13.44,0,0,1-2.09-3.2l-.34-.64a4,4,0,0,0-.2-.35,3.48,3.48,0,0,1-.51-1.1,2.41,2.41,0,0,1,.34-1.6,2.81,2.81,0,0,0,.36-1.36c.09-1.8.25-3.6.41-5.29l.08-.89a30.54,30.54,0,0,0,.2-5.8c-.12-1.28-.16-2.58-.19-3.84,0-1-.07-2.15-.15-3.21a20.83,20.83,0,0,0-.64-3.46,6.25,6.25,0,0,0-.35-1,6.86,6.86,0,0,1-.38-1.08,3.55,3.55,0,0,1-.09-1,3.13,3.13,0,0,0,0-.64,4.93,4.93,0,0,0-1.77-3.08l-.3,0a2.09,2.09,0,0,0-1.27,1.5c-.09.34-.19.68-.28,1-.24.83-.49,1.69-.67,2.53-.33,1.47-.58,2.89-.77,4.22-.27,2-.52,4.09-.75,6.44a1.57,1.57,0,0,0,.12.57,4.6,4.6,0,0,1,.13.5c.13.64.26,1.29.38,1.93l.26,1.33c.08.39.16.78.21,1.18s.06.83.06,1.25l0,.87c0,.19,0,.38,0,.57s0,.32,0,.47a5.4,5.4,0,0,1,0,1.14,1.38,1.38,0,0,1-.46.82l-.14.16-.38.51-.49-.41a1.74,1.74,0,0,0-.26-.19,1.46,1.46,0,0,1-.78-.93c-.1-.74-.14-1.48-.18-2.21,0-.4,0-.8-.07-1.2a1.64,1.64,0,0,0-.07-.15,1.79,1.79,0,0,1-.17-.48c-.06-.34-.1-.68-.14-1s-.09-.69-.15-1A11.75,11.75,0,0,0,101.7,81a.61.61,0,0,0-.62-.47h0c-.28,0-.38.22-.41.41a26.32,26.32,0,0,0-.43,3.73c0,1,0,2,.07,3l.06,1.36c0,.37,0,.74,0,1.11a21,21,0,0,0,.08,2.12,26,26,0,0,0,.68,4.13,8.07,8.07,0,0,0,.89,1.89c.15.25.29.5.42.74a6.41,6.41,0,0,0,.38.62,8.17,8.17,0,0,1,.55,1c.27.61.53,1.23.78,1.84s.46,1.14.71,1.7c.33.74.67,1.47,1,2.19s.7,1.48,1,2.22c.21.48.4,1,.59,1.47.13.35.27.7.41,1a.92.92,0,0,0,.11.15,1.6,1.6,0,0,1,.3.45c.11.27.21.55.3.83s.17.48.26.72l.22.52c.43,1.08.87,2.15,1.35,3.2.76,1.68,1.55,3.35,2.35,5a1,1,0,0,1,.06.84,1.07,1.07,0,0,1-.68.54c-.38.12-.75.22-1.12.31-.84.21-1.56-.59-1.87-1.33-.49-1.19-1-2.37-1.57-3.52l-.06-.12c-.2-.44-.42-.87-.64-1.31s-.39-.77-.57-1.16l-.55-1.16c-.68-1.42-1.37-2.88-2-4.35-.33-.74-.59-1.51-.85-2.25-.15-.44-.3-.88-.47-1.31-.27-.72-.57-1.42-.88-2.13s-.56-1.26-.85-1.89c-.52-1.15-1-2.29-1.53-3.45-.24-.58-.43-1.18-.61-1.76-.1-.3-.19-.6-.3-.9a2.92,2.92,0,0,0-.17-.36l-.06-.11a2.91,2.91,0,0,1-.34-1.74,16.09,16.09,0,0,0,0-2.18l0-.64-.12-1.81c-.08-1.13-.15-2.26-.19-3.4a5,5,0,0,1,.1-1.11,5.12,5.12,0,0,0,.09-.83,18.39,18.39,0,0,1,.57-4.17c.07-.33.14-.66.2-1a2.48,2.48,0,0,1,1.12-1.45,8,8,0,0,1,1.47-.62l.23-.08c0-.25,0-.54-.07-.82a14.48,14.48,0,0,1,.36-4.15q.18-.92.33-1.83c.14-.77.27-1.53.43-2.29,0-.21.09-.43.14-.64a9.22,9.22,0,0,1,.83-2.72c.13-.23.25-.46.37-.69a10,10,0,0,1,2.28-3.16,3.53,3.53,0,0,1,2.4-1h.16a1.94,1.94,0,0,1,1.57.72,3.08,3.08,0,0,0,.41.35l.37.3a5.53,5.53,0,0,1,1.41,2.56,2.72,2.72,0,0,0,.21.46,3.71,3.71,0,0,1,.33.81,12.11,12.11,0,0,0,.39,1.21,6.53,6.53,0,0,1,.56,2.79,3,3,0,0,0,.18.9,4.8,4.8,0,0,1,.21,1c.07.73.09,1.47.12,2.18,0,.37,0,.75,0,1.12l.12,2,.14,2.29c0,.84.1,1.69.13,2.53s.06,2,0,2.92a2.52,2.52,0,0,1-.11.66c0,.1,0,.2-.06.3-.12,1-.22,1.93-.31,2.89-.14,1.47-.27,2.94-.39,4.42,0,.71-.09,1.43-.13,2.16l0,.85a6.53,6.53,0,0,1,.64,1.19,2.75,2.75,0,0,0,.92,1.36l.18.11.07.2a3.1,3.1,0,0,1,.1.36s0,.1,0,.15a2.56,2.56,0,0,1,1.13,1.27,2.66,2.66,0,0,0,.32.53,3.65,3.65,0,0,1,.57.88,2.18,2.18,0,0,0,.61.82,2,2,0,0,1,.68,1,2.25,2.25,0,0,0,.22.44,17.27,17.27,0,0,0,1.3,1.64.75.75,0,0,1,.09.09l.15-.09.48-.29.34.45,1.47,2.11a.81.81,0,0,1,.16.16,7.89,7.89,0,0,1,.73,1.07,5,5,0,0,1,.31.79v0h.09l.43.53,0,0,.22.32h0l.2.31.31.44a8.06,8.06,0,0,1,.65,1c.25.5.47,1,.68,1.54l.32.75.13.08.12.07a1.62,1.62,0,0,1,.48.41c.34.46.67.93,1,1.4l.77,1.08a1.32,1.32,0,0,1,.33,1.11,3.23,3.23,0,0,1,.7.59,14.74,14.74,0,0,1,1,1.31c.16.25.33.5.5.73a3.17,3.17,0,0,0,.3.34,4.36,4.36,0,0,1,.52.65c.27.46.5.94.74,1.42l.22.46a.83.83,0,0,1,.47.35.93.93,0,0,1,0,.93,2.4,2.4,0,0,1-.46.59l-.1.1v1.16l-.08.14A1.32,1.32,0,0,1,132.42,128.22ZM108,62.07a1.55,1.55,0,0,1,.9.27,6.08,6.08,0,0,1,2.23,3.77,4.17,4.17,0,0,1,.07.91,2.73,2.73,0,0,0,0,.66,7.17,7.17,0,0,0,.33.91,7.09,7.09,0,0,1,.4,1.15,22.25,22.25,0,0,1,.68,3.68c.08,1.09.12,2.2.15,3.27,0,1.24.07,2.52.19,3.76a32.62,32.62,0,0,1-.2,6l-.09.88c-.15,1.67-.31,3.46-.4,5.24a3.83,3.83,0,0,1-.54,1.92,1.21,1.21,0,0,0-.18.74,2.44,2.44,0,0,0,.35.71c.08.13.17.27.24.41l.35.65a12.17,12.17,0,0,0,1.89,2.93,7.83,7.83,0,0,1,.9,1.2l.25.38.66,1c.31.48.62,1,1,1.41,1,1.41,2,2.8,3,4.19.22.31.42.56.62.82.34.44.7.89,1,1.38.52.79,1,1.6,1.51,2.41.32.53.64,1.06,1,1.59.59.94,1.2,1.86,1.82,2.78.48.73,1,1.44,1.49,2.16a2.88,2.88,0,0,0,.27.34,5.72,5.72,0,0,1,.37.49c.58.88,1.15,1.77,1.71,2.66s1.09,1.72,1.6,2.6a2.21,2.21,0,0,1,.31,1.23c0,.18,0,.26.31.38a.59.59,0,0,0,.29,0v-1.19l.16-.17c.1-.12.2-.21.28-.3l0,0a1,1,0,0,1-.18-.29l-.31-.62c-.22-.45-.45-.9-.7-1.34a2.68,2.68,0,0,0-.36-.44,3.86,3.86,0,0,1-.38-.44c-.19-.26-.36-.52-.54-.78a12.38,12.38,0,0,0-.88-1.2,3.09,3.09,0,0,0-.67-.51,3,3,0,0,1-.42-.27l-1-.75,1-.26-.77-1.08q-.48-.69-1-1.38l-.14-.09-.2-.13a1,1,0,0,1-.47-.46c-.13-.29-.25-.58-.37-.88-.21-.49-.42-1-.66-1.46a4.57,4.57,0,0,0-.44-.71l-.67.74-2.22-3.65c-.32-.38-.64-.76-.94-1.15l-.17-.23.07-.37a1.2,1.2,0,0,1,.33-.58l-.16-.23a.84.84,0,0,1-.35.07,1.26,1.26,0,0,1-.92-.55,18,18,0,0,1-1.39-1.75,3.3,3.3,0,0,1-.35-.67,1.74,1.74,0,0,0-.24-.46,3.11,3.11,0,0,1-1-1.25,3,3,0,0,0-.4-.64,3.78,3.78,0,0,1-.5-.78c-.21-.41-.35-.65-.66-.77s-.53-.61-.61-.94a.07.07,0,0,0,0-.05,4.13,4.13,0,0,1-1.18-1.75,4.63,4.63,0,0,0-.58-1.06.88.88,0,0,1-.16-.67l0-.87c0-.73.08-1.46.14-2.19.11-1.48.25-3,.38-4.43.09-1,.2-1.95.31-2.91a3.56,3.56,0,0,1,.1-.47,1.49,1.49,0,0,0,.07-.36c0-1,0-1.92,0-2.87s-.08-1.67-.13-2.5l-.14-2.29-.12-2c0-.38,0-.76,0-1.14,0-.7,0-1.41-.11-2.11a4.83,4.83,0,0,0-.18-.73,3.77,3.77,0,0,1-.21-1.32,5.75,5.75,0,0,0-.5-2.3c-.15-.43-.31-.87-.43-1.34a2.5,2.5,0,0,0-.22-.53,3.54,3.54,0,0,1-.3-.66,4.37,4.37,0,0,0-1.07-2,3.36,3.36,0,0,0-.29-.24,3.1,3.1,0,0,1-.61-.55c-.14-.17-.27-.25-.69-.27h-.11a2.35,2.35,0,0,0-1.63.73,8.85,8.85,0,0,0-2,2.81l-.38.7a8.66,8.66,0,0,0-.71,2.37c0,.22-.08.44-.13.66-.16.74-.29,1.49-.42,2.24s-.22,1.25-.34,1.87a13,13,0,0,0-.34,3.8c0,.34,0,.68.07,1l.06.77-.42.16-.68.24a7.35,7.35,0,0,0-1.25.52,1.36,1.36,0,0,0-.55.66l-.21,1a18.21,18.21,0,0,0-.54,3.9,5.73,5.73,0,0,1-.1,1,4,4,0,0,0-.09.88c0,1.12.11,2.24.19,3.36l.12,1.82,0,.63a15.43,15.43,0,0,1,0,2.36,1.85,1.85,0,0,0,.21,1.08l.06.1a4.45,4.45,0,0,1,.25.54c.11.31.2.62.3.93.18.58.36,1.12.58,1.65.48,1.15,1,2.29,1.51,3.42.29.64.58,1.27.86,1.91s.62,1.44.91,2.18c.17.45.32.9.48,1.35.24.72.5,1.46.81,2.16.63,1.45,1.32,2.91,2,4.31l.55,1.17c.18.38.37.76.56,1.13s.45.89.66,1.34l0,.12c.54,1.16,1.1,2.36,1.6,3.57a1.15,1.15,0,0,0,.5.63l.81-.23c-.77-1.61-1.53-3.21-2.26-4.81-.48-1.07-.92-2.16-1.37-3.25l-.21-.51c-.1-.26-.19-.53-.29-.8s-.17-.5-.27-.75a.92.92,0,0,0-.11-.14,1.76,1.76,0,0,1-.3-.45c-.15-.36-.28-.72-.42-1.09s-.36-.94-.57-1.4c-.33-.73-.67-1.46-1-2.19s-.7-1.48-1-2.22c-.25-.57-.49-1.15-.72-1.73s-.5-1.21-.76-1.81a7.65,7.65,0,0,0-.47-.81c-.15-.23-.3-.46-.43-.7s-.26-.47-.4-.71a9.22,9.22,0,0,1-1-2.18,27.67,27.67,0,0,1-.71-4.31,21.18,21.18,0,0,1-.09-2.24c0-.36,0-.72,0-1.08l-.06-1.34c0-1-.1-2-.07-3a27.82,27.82,0,0,1,.44-3.89,1.62,1.62,0,0,1,1.58-1.42,1.84,1.84,0,0,1,1.77,1.29,11.69,11.69,0,0,1,.44,1.87c.07.36.11.72.16,1.09s.08.64.14,1a.82.82,0,0,0,.06.16,1.47,1.47,0,0,1,.19.57c0,.41.05.83.07,1.24,0,.7.07,1.36.16,2l.15.12h0a5.39,5.39,0,0,0,0-.85,4.38,4.38,0,0,1,0-.52c0-.2,0-.4,0-.6l0-.87a8.62,8.62,0,0,0-.06-1.14,10.18,10.18,0,0,0-.19-1.08l-.26-1.34c-.12-.64-.25-1.28-.38-1.92a2.79,2.79,0,0,0-.1-.39,2.5,2.5,0,0,1-.17-1c.24-2.37.49-4.49.76-6.48.19-1.37.45-2.82.79-4.32.19-.88.44-1.75.68-2.6.1-.33.19-.67.29-1a3.27,3.27,0,0,1,2-2.31A1.49,1.49,0,0,1,108,62.07Z"/><path class="cls-3" d="M42.18,115.89a13.73,13.73,0,0,1-.45-1.85c-.07-.67.61-.76,1-.78A4.21,4.21,0,0,0,45,112.13c1.59-1.22,3.21-2.4,4.82-3.6,1-.76,2-1.6,3-2.28s2.36-1.3,3.52-2c.4-.23.72-.58,1.1-.84a8.54,8.54,0,0,1,1-.6c.62-.33,1.27-.6,1.87-1,1.49-.87,2.95-1.79,4.45-2.67.7-.41,1.45-.74,2.16-1.13.29-.17.52-.44.81-.63.45-.3.91-.59,1.37-.87.64-.38,1.3-.75,1.94-1.14s1.53-1,2.3-1.44a8.12,8.12,0,0,0,1.29-.83,8.11,8.11,0,0,1,2.42-1.42,14.35,14.35,0,0,0,1.59-1,5.56,5.56,0,0,1-.2-2.49c.09-.67-.06-1.38,0-2,.1-1.18.26-2.35.42-3.51.19-1.39.38-2.78.59-4.17s.59-3,.7-4.51a24.25,24.25,0,0,1,.71-3.43c.11-.54.07-1.14.21-1.72a9.24,9.24,0,0,1,1.18-2.91c.33-.5.46-1.11.76-1.62a5.42,5.42,0,0,1,1-1.39c.65-.57,1.46-1,2.1-1.56.47-.43.91-.24,1.32-.12a3.68,3.68,0,0,1,1.21.7,5.74,5.74,0,0,1,1.82,2.57c.24.71.37,1.43.6,2.13a2.82,2.82,0,0,1,.09.71,6.17,6.17,0,0,0,.43,1.58,7.77,7.77,0,0,1,.13,2.27c0,1.49,0,3,0,4.46,0,.84.08,1.69.17,2.53a.69.69,0,0,0,.37.5c1,.27,1.12,1.16,1.47,1.9.12.28.25.55.38.82s.26.36.27.55a28.6,28.6,0,0,1,.11,3.2,25,25,0,0,1-.46,3.67c-.22,1.08-.65,2.12-.94,3.19a17.7,17.7,0,0,0-.46,2.28,12.19,12.19,0,0,0,0,1.48c0,1-.81,1.33-1.36,1.88A14.64,14.64,0,0,0,90,98.92,5,5,0,0,1,88.79,100a21.1,21.1,0,0,0-2.28,2.06c-.29.27-.56.54-.83.82s-.48.55-.75.79c-1.06,1-2.13,1.88-3.19,2.84-.17.16-.28.4-.45.57-.82.8-1.66,1.59-2.47,2.39-.25.25-.39.58-.63.83-.57.57-1.16,1.11-1.74,1.66,0,0,0,0,0,0-.56,1.48-2.15,2.14-2.8,3.55-.13.29-.49.47-.77.68a.31.31,0,0,1-.28,0c-.28-.4-.75-.81-.74-1.21s.45-.84.75-1.22a8.11,8.11,0,0,1,.72-.56c1.1-1.06,2.2-2.11,3.28-3.19.67-.68,1.26-1.44,1.93-2.13s1.67-1.63,2.52-2.43,1.42-1.34,2.14-2c.25-.24.53-.45.78-.7.85-.86,1.68-1.75,2.55-2.6.6-.59,1.25-1.13,1.88-1.71S89.46,97.41,90,96.9a5.08,5.08,0,0,0,1.07-2.43,32.72,32.72,0,0,0,.88-3.8c.14-.68.21-1.37.33-2,.07-.38.2-.74.29-1.12a2.57,2.57,0,0,0,.06-.55,17.66,17.66,0,0,1,0-2.91,7.31,7.31,0,0,0-.17-2.1,1.25,1.25,0,0,0-1.36-1.22.71.71,0,0,0-.73.42,16.57,16.57,0,0,0-1.22,2.1,14,14,0,0,0-.59,2.88,13.21,13.21,0,0,0-.07,2.18c0,.59.14,1.18.21,1.78s-.2,1.1-.79,1.15a1,1,0,0,1-1-1c0-.82.09-1.65.13-2.47,0-.55,0-1.1.07-1.64.1-.75.27-1.48.4-2.23,0-.14.1-.31.06-.42-.33-.8.44-1.21.64-1.82,0,0,0,0,0,0,.66-1.24,2.11-2,2.1-3.66,0-.69-.08-1.39-.1-2.08,0-1.18,0-2.36-.1-3.53s-.27-2.21-.41-3.31-.29-2-.44-3.06a4.6,4.6,0,0,0-1.55-2.41c-.49-.51-1.24-.3-2,.42-.33.3-.6.67-.92,1a6.77,6.77,0,0,0-1.68,2.91,22.31,22.31,0,0,0-.84,2.83c-.36,2-.61,4.12-.91,6.18,0,.28-.22.54-.26.82-.17,1.1-.31,2.2-.45,3.29s-.24,1.94-.32,2.91c-.14,1.64-.3,3.27-.34,4.91a8.54,8.54,0,0,0,.45,1.79,5.09,5.09,0,0,1,.14,1.09.52.52,0,0,1-.22.39c-1,.59-2,1.17-3.07,1.73s-2.17,1.14-3.24,1.74c-.26.14-.44.42-.69.59-.46.31-.94.58-1.41.87s-1.09.64-1.63,1c-.84.53-1.68,1.09-2.52,1.64l-.47.3c-.4.25-.8.52-1.21.74s-1,.43-1.45.71c-.86.52-1.68,1.1-2.53,1.62-1,.64-2.15,1.21-3.18,1.86-.48.31-.84.81-1.31,1.15s-1,.55-1.48.83-1,.52-1.39.83a9.26,9.26,0,0,0-1,.88c-.17.16-.3.47-.5.52a14,14,0,0,0-3.16,1.86c-.93.54-1.76,1.25-2.66,1.85-.61.42-1.25.78-1.89,1.15C44.51,114.55,43.43,115.16,42.18,115.89Z"/><path class="cls-3" d="M72.7,116.86a.77.77,0,0,1-.63-.28,1.54,1.54,0,0,0-.23-.29,2.11,2.11,0,0,1-.63-1.28,2.29,2.29,0,0,1,.73-1.38l.17-.2a2.4,2.4,0,0,1,.53-.45,1.24,1.24,0,0,0,.23-.17l.57-.55c.91-.87,1.81-1.74,2.7-2.64.33-.33.64-.69,1-1.05s.63-.72,1-1.07c.65-.66,1.33-1.3,2-1.94l.53-.51,1.73-1.62.41-.38.35-.32a4.59,4.59,0,0,0,.41-.36c.35-.35.69-.7,1-1.06.5-.52,1-1,1.52-1.55s.76-.7,1.14-1L88,98l.74-.71c.3-.29.6-.59.92-.87a2.92,2.92,0,0,0,.7-1.5c.06-.23.12-.47.2-.69a20.48,20.48,0,0,0,.68-2.83l.18-.89c.07-.37.13-.75.18-1.12l.15-.92a5.53,5.53,0,0,1,.18-.7l.12-.44a2.85,2.85,0,0,0,0-.42c0-.29,0-.58,0-.88a10.77,10.77,0,0,1,0-2.12A4.38,4.38,0,0,0,92,82.56c0-.18-.07-.36-.09-.54-.06-.5-.27-.7-.75-.7a.35.35,0,0,0-.16,0c-.21.38-.41.68-.6,1a5.66,5.66,0,0,0-.64,1.13,13.67,13.67,0,0,0-.55,2.75,12.41,12.41,0,0,0-.07,2.09c0,.39.07.78.13,1.2l.08.52A1.63,1.63,0,0,1,89,91.31a1.42,1.42,0,0,1-1,.52h-.11a1.62,1.62,0,0,1-1.13-.49,1.68,1.68,0,0,1-.46-1.17c0-.54,0-1.09.08-1.64l0-.84c0-.19,0-.37,0-.56A10.55,10.55,0,0,1,86.5,86c.07-.52.17-1,.27-1.55,0-.23.09-.47.13-.7,0-.06,0-.11,0-.16s0,0,0,0a1.76,1.76,0,0,1,.42-1.72,2.48,2.48,0,0,0,.25-.4l.1-.32.12,0A7.58,7.58,0,0,1,88.68,80a3.21,3.21,0,0,0,1.06-2.06c0-.39,0-.78,0-1.17s0-.6,0-.9,0-.85,0-1.27c0-.74,0-1.5-.08-2.24s-.17-1.58-.28-2.35l-.13-.92c-.1-.76-.21-1.52-.32-2.28L88.7,66a3.58,3.58,0,0,0-1.19-1.86L87.3,64a.27.27,0,0,0-.21-.09c-.11,0-.43,0-1,.54-.16.15-.3.32-.45.49s-.29.33-.44.48A6,6,0,0,0,83.7,68l-.3.91a11.15,11.15,0,0,0-.53,1.84c-.23,1.33-.42,2.69-.6,4-.1.72-.2,1.44-.31,2.16a2.09,2.09,0,0,1-.17.55,1.41,1.41,0,0,0-.09.27c-.16,1.09-.31,2.18-.45,3.28S81,83,80.94,83.93l-.07.79c-.11,1.34-.23,2.73-.26,4.08a2.76,2.76,0,0,0,.22.94,6.2,6.2,0,0,1,.21.7,6.08,6.08,0,0,1,.15,1.22,1.11,1.11,0,0,1-.52.92c-1,.59-2,1.17-3.08,1.74l-1.48.78-1.76,1a1.14,1.14,0,0,0-.24.22,4.36,4.36,0,0,1-.4.35c-.34.23-.69.43-1,.64l-1,.59-1,.63L69,99.55l-.87.57c-.11.08-.22.14-.33.21l-.52.33c-.29.18-.58.37-.88.53s-.44.22-.67.32a7.29,7.29,0,0,0-.74.37c-.44.27-.87.55-1.3.83s-.82.54-1.24.8l-1.38.8c-.6.34-1.21.68-1.79,1a3.57,3.57,0,0,0-.6.53,5.65,5.65,0,0,1-.68.59,7.84,7.84,0,0,1-1,.61c-.16.09-.33.17-.49.27l-.32.17c-.35.2-.7.39-1,.62a7.24,7.24,0,0,0-.75.65l-.18.18a.45.45,0,0,0-.1.13,1.22,1.22,0,0,1-.65.53,6.26,6.26,0,0,0-1.93,1.07,11.5,11.5,0,0,1-1.09.73,15.41,15.41,0,0,0-1.58,1.09l-1,.74c-.51.34-1,.65-1.57,1l-.36.21-2.42,1.4-1.67,1L41.6,116c-.05-.2-.11-.4-.17-.59a7.74,7.74,0,0,1-.3-1.33,1.17,1.17,0,0,1,.27-.93,1.75,1.75,0,0,1,1.29-.52,3.44,3.44,0,0,0,1.85-.91l.13-.1c1-.75,2-1.49,3-2.23l1.84-1.37c.34-.25.67-.52,1-.78.66-.52,1.34-1.06,2.07-1.53s1.45-.85,2.17-1.24c.46-.24.92-.49,1.37-.75a3.89,3.89,0,0,0,.56-.42c.16-.13.32-.27.5-.39a7.37,7.37,0,0,1,1.07-.64l.75-.38c.37-.18.73-.35,1.08-.56L62.3,100c.74-.45,1.48-.9,2.22-1.33.39-.23.8-.44,1.2-.64s.65-.33,1-.51a1.88,1.88,0,0,0,.36-.27c.14-.12.27-.23.41-.33.46-.31.93-.6,1.4-.88.29-.18.59-.35.89-.52l1-.62,1.58-1,.72-.46.45-.26a4,4,0,0,0,.74-.49,7,7,0,0,1,2.16-1.34l.43-.2a7.47,7.47,0,0,0,1-.63l.15-.11a6.23,6.23,0,0,1-.11-2.32,4.64,4.64,0,0,0,0-1,6.92,6.92,0,0,1,0-1c.09-1.07.23-2.13.37-3.16l0-.38c.19-1.4.39-2.79.6-4.18q.12-.76.27-1.53A29.52,29.52,0,0,0,79.62,74a13.79,13.79,0,0,1,.47-2.48c.09-.34.17-.69.25-1a5.16,5.16,0,0,0,.08-.7,6.31,6.31,0,0,1,.13-1,10.11,10.11,0,0,1,1.27-3.1,4.47,4.47,0,0,0,.36-.76,6.12,6.12,0,0,1,.38-.83,5.74,5.74,0,0,1,1.15-1.54,11.45,11.45,0,0,1,1.07-.8,8,8,0,0,0,1-.75,1.53,1.53,0,0,1,1-.43,2.5,2.5,0,0,1,.74.14l.12,0a3.84,3.84,0,0,1,1.42.81,6.25,6.25,0,0,1,2,2.84c.13.37.22.74.32,1.11s.17.69.28,1a2.2,2.2,0,0,1,.11.69v.16a4.45,4.45,0,0,0,.29,1.14l.11.3a5.45,5.45,0,0,1,.17,1.92c0,.18,0,.36,0,.54,0,.65,0,1.31,0,2,0,.83,0,1.66,0,2.49a22.26,22.26,0,0,0,.17,2.47v0a2.56,2.56,0,0,1,1.6,1.79l.17.41.38.81.08.12a1.33,1.33,0,0,1,.25.66l0,.58a21.81,21.81,0,0,1,.07,2.69A24.93,24.93,0,0,1,94.67,89a17.88,17.88,0,0,1-.56,2c-.14.41-.28.83-.39,1.26a18.29,18.29,0,0,0-.45,2.2,4.31,4.31,0,0,0,0,.8c0,.2,0,.4,0,.6a2.52,2.52,0,0,1-1.16,2c-.13.11-.26.21-.38.33l-.56.5a4.91,4.91,0,0,0-.73.7,5.4,5.4,0,0,1-1.35,1.2,13.45,13.45,0,0,0-1.58,1.39l-.63.62c-.27.25-.52.51-.78.77l-.29.31a6.57,6.57,0,0,1-.52.54l-1.56,1.39L82.15,107a1.14,1.14,0,0,0-.15.19,2.34,2.34,0,0,1-.29.37c-.36.36-.73.71-1.1,1.06s-.92.88-1.37,1.33a1.91,1.91,0,0,0-.24.32,3.19,3.19,0,0,1-.39.5c-.4.41-.82.8-1.24,1.2l-.46.42a5.77,5.77,0,0,1-1.52,2,5.21,5.21,0,0,0-1.23,1.5,2,2,0,0,1-.76.77l-.19.14A.83.83,0,0,1,72.7,116.86ZM91.13,80.12a1.84,1.84,0,0,1,2,1.74c0,.17,0,.33.08.5a5.4,5.4,0,0,1,.09,1.77,9.87,9.87,0,0,0,0,1.89c0,.31,0,.62,0,.92a3.14,3.14,0,0,1-.07.7c0,.17-.09.34-.14.51s-.11.38-.15.58-.09.58-.14.87-.12.8-.2,1.19-.11.59-.17.88a22.8,22.8,0,0,1-.72,3,6.13,6.13,0,0,0-.18.61,3.86,3.86,0,0,1-1.06,2.07l-.89.85-.76.73c-.25.24-.51.47-.77.7s-.74.65-1.09,1c-.51.5-1,1-1.51,1.53-.34.36-.69.71-1,1.06-.16.16-.32.3-.49.44l-.31.28-.42.38-1.72,1.61-.53.51c-.66.63-1.33,1.26-2,1.91-.32.33-.63.68-.93,1s-.66.75-1,1.11c-.89.9-1.8,1.78-2.72,2.66l-.56.54a2.94,2.94,0,0,1-.41.31,1.7,1.7,0,0,0-.26.2l-.19.23c-.15.17-.43.49-.43.62a1.9,1.9,0,0,0,.35.49v0a1.1,1.1,0,0,0,.29-.24,6.13,6.13,0,0,1,1.49-1.87,4.76,4.76,0,0,0,1.29-1.64l.06-.16.64-.59c.41-.38.82-.77,1.21-1.16a1.78,1.78,0,0,0,.24-.32,3.27,3.27,0,0,1,.39-.51c.46-.46.93-.9,1.39-1.35s.73-.69,1.09-1a1.63,1.63,0,0,0,.14-.18,2,2,0,0,1,.33-.41L83,104.61l1.56-1.38c.15-.15.29-.3.43-.46l.29-.31c.3-.31.57-.57.85-.83l.61-.6a13.51,13.51,0,0,1,1.74-1.53,4.28,4.28,0,0,0,1.08-.94,6.3,6.3,0,0,1,.9-.89c.17-.14.34-.28.49-.43s.3-.28.46-.41c.46-.38.73-.62.73-1,0-.17,0-.34,0-.51a6,6,0,0,1,0-1,17.47,17.47,0,0,1,.48-2.37c.12-.44.26-.88.41-1.32a17,17,0,0,0,.53-1.83,25.39,25.39,0,0,0,.44-3.58,21.61,21.61,0,0,0-.07-2.54l0-.59s0,0-.06-.08l-.15-.24-.39-.84c-.07-.15-.13-.31-.2-.47-.25-.63-.4-1-.88-1.1a1.26,1.26,0,0,1-.8-1,22.11,22.11,0,0,1-.18-2.58c0-.84,0-1.68,0-2.52,0-.65,0-1.3,0-2,0-.19,0-.38,0-.57a4.82,4.82,0,0,0-.11-1.51l-.1-.28a5.43,5.43,0,0,1-.36-1.44v-.2a2.6,2.6,0,0,0,0-.36c-.13-.37-.22-.74-.32-1.11s-.17-.69-.28-1a5.16,5.16,0,0,0-1.65-2.3,3,3,0,0,0-1-.58l-.13,0a1.77,1.77,0,0,0-.39-.09.29.29,0,0,0-.22.11,10.32,10.32,0,0,1-1.16.87,10.15,10.15,0,0,0-1,.7,5,5,0,0,0-.9,1.23,4.6,4.6,0,0,0-.31.68,5,5,0,0,1-.46,1A8.76,8.76,0,0,0,81.72,69a5.39,5.39,0,0,0-.1.83,6.22,6.22,0,0,1-.11.88c-.07.36-.17.72-.26,1.08A12.85,12.85,0,0,0,80.82,74a30,30,0,0,1-.44,3.06c-.09.5-.19,1-.26,1.5-.21,1.39-.41,2.77-.6,4.16l0,.38c-.13,1-.28,2.07-.37,3.1a6,6,0,0,0,0,.85,6.35,6.35,0,0,1,0,1.23,5,5,0,0,0,.18,2.23l.14.43-.38.25c-.16.1-.32.22-.47.33a8.25,8.25,0,0,1-1.19.74l-.44.2a6,6,0,0,0-1.82,1.11,4.91,4.91,0,0,1-1,.68l-.39.22L73,95l-1.59,1-1.07.63c-.29.17-.58.33-.87.51-.46.27-.91.55-1.34.85a2.34,2.34,0,0,0-.31.24,3.15,3.15,0,0,1-.55.41c-.33.19-.68.36-1,.53s-.76.39-1.13.6c-.74.43-1.47.88-2.21,1.32s-1.49.91-2.24,1.35c-.38.22-.77.41-1.17.6l-.72.36a8.12,8.12,0,0,0-.93.56c-.15.1-.28.22-.42.33a4.6,4.6,0,0,1-.73.54c-.46.27-.93.52-1.4.77-.7.38-1.43.76-2.09,1.19s-1.34,1-2,1.46c-.34.27-.68.54-1,.8l-1.85,1.38c-1,.73-2,1.46-3,2.21l-.13.1a4.42,4.42,0,0,1-2.5,1.16c-.37,0-.45.09-.46.1a8.76,8.76,0,0,0,.24,1l.31-.18,2.42-1.4.36-.21c.51-.29,1-.59,1.5-.91.34-.23.66-.48,1-.72a18.81,18.81,0,0,1,1.7-1.16c.34-.2.67-.43,1-.66a7.55,7.55,0,0,1,2.23-1.24.31.31,0,0,0,.07-.09,2.66,2.66,0,0,1,.26-.31l.17-.16a8.34,8.34,0,0,1,.89-.77c.37-.26.76-.47,1.13-.68l.31-.18.54-.29a6.28,6.28,0,0,0,.89-.51,4.79,4.79,0,0,0,.53-.48,4.94,4.94,0,0,1,.81-.68c.6-.38,1.22-.74,1.84-1.09l1.35-.78,1.2-.77c.44-.29.88-.58,1.33-.86.28-.16.58-.3.87-.43a5.55,5.55,0,0,0,.6-.29c.28-.15.54-.32.8-.48l1.71-1.1c.55-.36,1.1-.73,1.66-1.08l1.06-.65,1-.59c.33-.2.66-.39,1-.61a1,1,0,0,0,.22-.2,2.43,2.43,0,0,1,.51-.42l1.79-1c.49-.26,1-.51,1.47-.78,1-.54,2-1.11,3-1.68a6.08,6.08,0,0,0-.12-.87c-.05-.19-.11-.39-.18-.58a4,4,0,0,1-.29-1.35c0-1.4.16-2.8.27-4.16l.07-.79c.08-1,.2-2,.32-2.93s.29-2.21.45-3.31a2.87,2.87,0,0,1,.17-.54,1.2,1.2,0,0,0,.1-.28l.3-2.14c.18-1.33.37-2.71.6-4a14.44,14.44,0,0,1,.58-2c.1-.29.2-.58.29-.87a7.11,7.11,0,0,1,1.83-3.16,5,5,0,0,0,.38-.42c.18-.2.36-.4.55-.58,1.09-1,2.18-1.11,2.86-.39l.2.21a4.46,4.46,0,0,1,1.51,2.52l.12.78c.11.76.22,1.52.32,2.29l.13.91c.11.79.23,1.61.29,2.43s.07,1.55.08,2.31c0,.42,0,.83,0,1.25s0,.58,0,.87,0,.82,0,1.23a4.2,4.2,0,0,1-1.36,2.85,6.53,6.53,0,0,0-.81,1.09l-.16.24a2.46,2.46,0,0,1-.28.43c-.27.38-.31.47-.23.66a1.07,1.07,0,0,1,0,.69c-.06.31-.11.55-.15.79-.1.49-.2,1-.26,1.48,0,.32,0,.66-.06,1s0,.4,0,.6l-.05.85c0,.54-.06,1.07-.08,1.61a.39.39,0,0,0,.13.29.4.4,0,0,0,.26.13.33.33,0,0,0,.21-.07.58.58,0,0,0,0-.4l-.07-.51a11.26,11.26,0,0,1-.15-1.33A14.72,14.72,0,0,1,88,86.05a15.32,15.32,0,0,1,.62-3,6.33,6.33,0,0,1,.77-1.4c.17-.25.34-.51.49-.78A1.31,1.31,0,0,1,91.13,80.12Z"/><path class="cls-4" d="M43.17,79c1-.31,1.82.41,2.8.59l6.19,1.15c1.35.26,2.69.57,4,.83s2.59.43,3.87.7c1,.23,2.06.57,3.1.82a6.64,6.64,0,0,0,1.71.23c1.16,0,2.22.63,3.41.41.71-.13,1.15.48,1,1.24-.06.39.07.8-.4,1.08a1,1,0,0,1-1.13.06,12.47,12.47,0,0,0-1.73-.7c-.6.85-1.33-.08-2.07,0,0,0,0-.15,0-.21-1-.15-2-.24-3-.44a12.76,12.76,0,0,1-2.16-.65,11.88,11.88,0,0,0-4-.87c-.62,0-1.24-.24-1.86-.31-.78-.09-1.56-.07-2.33-.19-1.15-.17-2.3-.41-3.44-.63l-2.67-.52c-.51-.1-1-.18-1.53-.3a.85.85,0,0,1-.46-1.15C42.74,79.77,42.92,79.44,43.17,79Z"/><path class="cls-4" d="M68.31,86.89a1.64,1.64,0,0,1-.82-.24,7.15,7.15,0,0,0-1.08-.45l-.19-.07a1.45,1.45,0,0,1-1.69,0A1.68,1.68,0,0,0,64,86a.68.68,0,0,1-.54-.28l-.42,0c-.7-.09-1.43-.18-2.14-.33a12.8,12.8,0,0,1-2.27-.68,11.08,11.08,0,0,0-3.82-.82,7.15,7.15,0,0,1-1.17-.19c-.25,0-.5-.11-.75-.14s-.66,0-1-.07-.9,0-1.34-.11c-.87-.13-1.74-.3-2.6-.47l-.87-.17-2.16-.42L44,82.07c-.37-.07-.75-.14-1.13-.23a1.28,1.28,0,0,1-.87-.77,1.43,1.43,0,0,1,0-1.26c.13-.25.27-.49.43-.78l.19-.32a.6.6,0,0,1,.34-.28,3.34,3.34,0,0,1,2.22.28,5,5,0,0,0,.88.29l2.12.39,4.07.76c.69.13,1.39.28,2.07.42l2,.41,1.59.28c.77.13,1.53.26,2.29.42.58.13,1.16.29,1.73.45s.92.26,1.38.37a6.35,6.35,0,0,0,1.42.22H65a6.44,6.44,0,0,1,1.55.25,3.85,3.85,0,0,0,1.63.18,1.41,1.41,0,0,1,1.38.47,1.84,1.84,0,0,1,.37,1.47.82.82,0,0,0,0,.22,1.4,1.4,0,0,1-.67,1.29A1.8,1.8,0,0,1,68.31,86.89ZM66.06,84.8a.59.59,0,0,1,.22,0l.54.2a7.45,7.45,0,0,1,1.27.54c.21.12.26.1.52,0,.06,0,.07,0,.08-.29a2.4,2.4,0,0,1,0-.37.63.63,0,0,0-.09-.48.19.19,0,0,0-.15-.06,4.7,4.7,0,0,1-.68.06,6.44,6.44,0,0,1-1.55-.25A5.22,5.22,0,0,0,65,83.93h-.27a7.57,7.57,0,0,1-1.7-.25c-.48-.11-1-.24-1.43-.38S60.5,83,60,82.88c-.75-.16-1.5-.29-2.25-.41l-1.62-.29-2-.41c-.68-.14-1.36-.29-2.05-.42L48,80.59l-2.13-.39a5.9,5.9,0,0,1-1.1-.35,2.89,2.89,0,0,0-1.18-.3l0,.08-.42.76a.29.29,0,0,0,.09.27c.33.08.69.14,1.05.21l.93.18,2.16.42.87.17c.85.16,1.7.33,2.55.46.4.06.81.08,1.22.1s.73,0,1.09.08a6.49,6.49,0,0,1,.86.16,5.76,5.76,0,0,0,1,.15,12.47,12.47,0,0,1,4.23.91,12.31,12.31,0,0,0,2,.62c.67.14,1.34.22,2.06.31l.87.12a.65.65,0,0,1,.44.29c.17,0,.33.12.48.18a1.74,1.74,0,0,0,.44.15s0,0,.11-.1A.6.6,0,0,1,66.06,84.8Z"/><path class="cls-4" d="M152.35,80.6a2.71,2.71,0,0,1-2.78,1.34,7.05,7.05,0,0,0-2.52.59c-.76.22-1.5.48-2.24.73s-1.58.56-2.36.86c-1,.4-2,.88-3,1.24-1.45.51-2.93.92-4.4,1.41-.65.22-1.28.51-1.93.75-1.29.48-2.58,1-3.88,1.42-.84.31-1.72.56-2.56.9-1.14.47-2.26,1-3.4,1.5a1.66,1.66,0,0,1-.8.06c-.46-.06-.72-.28-.53-.81s.39-1.16,1.3-1.26a9.83,9.83,0,0,0,2.43-.94c1-.38,2-.77,3-1.11,1.47-.5,3-.94,4.43-1.43.52-.18.9-.6,1.53-.67a10.53,10.53,0,0,0,2.44-.67c1-.36,1.91-.82,2.88-1.22.31-.13.65-.22,1-.35l2.93-1.25a3,3,0,0,1,.7-.23,4.57,4.57,0,0,0,1.78-.62,4.38,4.38,0,0,1,2-.68,4.45,4.45,0,0,0,2.14-.93c.34-.24,1.09,0,1.33.49Z"/><path class="cls-4" d="M122.8,92a2.69,2.69,0,0,1-.4,0,1.22,1.22,0,0,1-1-.54,1.18,1.18,0,0,1-.06-1.07,2,2,0,0,1,1.81-1.66,4.8,4.8,0,0,0,1.43-.52,9.28,9.28,0,0,1,.85-.39c.94-.36,2-.77,3-1.12l2.25-.73,2.17-.7a2.62,2.62,0,0,0,.47-.24,2.77,2.77,0,0,1,1.2-.46,10,10,0,0,0,2.29-.64c.62-.23,1.23-.5,1.83-.76l1-.44a4.81,4.81,0,0,1,.53-.2l.44-.16,1.46-.62,1.47-.63a4.39,4.39,0,0,1,.81-.26l.14,0a3.74,3.74,0,0,0,1.43-.49,5,5,0,0,1,2.31-.79,3.76,3.76,0,0,0,1.85-.83,1.77,1.77,0,0,1,2.22.71l.49.88a.61.61,0,0,1,0,.64,3.3,3.3,0,0,1-3.36,1.6,3.92,3.92,0,0,0-1.58.34l-.7.23c-.71.2-1.4.44-2.09.68l-.12,0c-.78.27-1.56.55-2.33.85l-1.18.5c-.6.26-1.22.52-1.84.74-.85.3-1.71.57-2.56.83l-1.85.59c-.38.12-.75.28-1.11.43l-.8.32-3.89,1.42-1,.34c-.51.17-1,.34-1.52.55s-1.22.52-1.83.79-1,.48-1.58.7A1.73,1.73,0,0,1,122.8,92Zm-.27-1.25h0a1.68,1.68,0,0,0,.49,0c.52-.22,1-.46,1.55-.69s1.23-.56,1.86-.82,1.07-.39,1.61-.57l1-.34q1.94-.69,3.87-1.41l.76-.31c.4-.16.79-.32,1.19-.45.62-.21,1.25-.4,1.87-.6.84-.26,1.69-.52,2.52-.81.59-.21,1.18-.47,1.76-.71l1.22-.52c.78-.31,1.58-.59,2.38-.86l.12,0c.71-.25,1.42-.5,2.15-.71l.64-.21a5,5,0,0,1,2.11-.4,2.05,2.05,0,0,0,2-.77l-.3-.55a.68.68,0,0,0-.48-.26,4.82,4.82,0,0,1-2.4,1,3.82,3.82,0,0,0-1.74.58,4.68,4.68,0,0,1-1.87.68l-.13,0a2.75,2.75,0,0,0-.58.19l-1.47.63-1.46.62-.53.19a4.13,4.13,0,0,0-.45.17l-1,.43c-.63.28-1.27.55-1.91.79a11.3,11.3,0,0,1-2.58.71,1.7,1.7,0,0,0-.71.29,3.71,3.71,0,0,1-.69.35c-.73.25-1.47.48-2.2.71s-1.49.47-2.23.72c-1,.34-2.07.75-3,1.1-.26.1-.52.23-.77.35a5.31,5.31,0,0,1-1.83.63c-.49,0-.56.19-.78.83Z"/><path class="cls-4" d="M109.86,29.32a7.23,7.23,0,0,0-.42.89,11.72,11.72,0,0,0-.39,1.55c-.16.93-.29,1.87-.42,2.82-.22,1.61-.47,3.22-.62,4.84-.13,1.33-.13,2.66-.21,4,0,.75-.13,1.49-.18,2.23-.11,1.6-.21,3.2-.34,4.8-.06.81-.19,1.61-.26,2.41a5.93,5.93,0,0,0,0,1,2.12,2.12,0,0,1-.55,2.06c-.25.21-.5.5-.76.29a1.39,1.39,0,0,1-.57-.93c0-.68.25-1.35.33-2,.12-1,.18-2.08.27-3.12.15-1.71.32-3.41.45-5.12.11-1.4.17-2.81.28-4.21.06-.81.18-1.61.26-2.41s.18-1.74.27-2.61c0-.23.07-.45.11-.68.32-1.65.65-3.29,1-4.94.06-.34,0-.7,0-1s.18-1,.81-1S109.71,28.25,109.86,29.32Z"/><path class="cls-4" d="M106,56.91a.94.94,0,0,1-.57-.2,2,2,0,0,1-.8-1.43,6.89,6.89,0,0,1,.19-1.31c0-.26.11-.53.14-.79.08-.67.13-1.34.18-2l.09-1.09.16-1.78c.1-1.12.2-2.23.29-3.34.06-.7.1-1.39.14-2.09s.09-1.42.14-2.12c0-.53.1-1.06.17-1.59l.09-.83.28-2.62a6,6,0,0,1,.11-.72l.27-1.42c.23-1.18.46-2.35.68-3.52a1.86,1.86,0,0,0,0-.41,4.15,4.15,0,0,1,0-.61,1.51,1.51,0,0,1,1.39-1.51h.17c1.14,0,1.26.87,1.37,1.71a.6.6,0,0,1,0,.35l-.15.29a2.66,2.66,0,0,0-.23.52,10.18,10.18,0,0,0-.37,1.47c-.17.93-.3,1.86-.43,2.8l-.16,1.22c-.17,1.18-.34,2.41-.45,3.6-.08.83-.11,1.68-.14,2.5,0,.49,0,1-.07,1.46s-.06.85-.1,1.28-.06.63-.08,1l-.12,1.85c-.07,1-.14,2-.22,3,0,.42-.08.85-.13,1.27s-.09.76-.13,1.14a5.15,5.15,0,0,0,0,.77l0,.16a2.67,2.67,0,0,1-.76,2.57l-.1.09A1.32,1.32,0,0,1,106,56.91Zm2.48-25.13-.39,2-.28,1.42a6.17,6.17,0,0,0-.1.62l-.27,2.62c0,.28-.06.56-.1.84-.06.51-.12,1-.16,1.54,0,.7-.1,1.4-.14,2.1s-.08,1.41-.14,2.12c-.08,1.12-.19,2.23-.29,3.35l-.16,1.77-.09,1.08c0,.69-.11,1.38-.18,2.06,0,.3-.1.6-.16.9a6.34,6.34,0,0,0-.17,1.08.94.94,0,0,0,.18.29l0,0,.13-.1c.41-.35.4-.75.33-1.49l0-.2a5.3,5.3,0,0,1,0-1c0-.4.08-.79.13-1.19s.1-.81.13-1.21c.08-1,.15-2,.21-3l.13-1.85c0-.32,0-.65.08-1s.08-.83.1-1.24,0-1,.06-1.44c0-.84.07-1.71.15-2.56.12-1.23.29-2.46.45-3.65l.17-1.23C108.15,33.59,108.27,32.68,108.43,31.78Zm.66-3H109c-.13,0-.17,0-.24.45a1.78,1.78,0,0,0,0,.4,3.12,3.12,0,0,1,0,.67l-.18,1c.08-.37.19-.76.33-1.21a4.46,4.46,0,0,1,.32-.73l0-.09a3,3,0,0,0-.09-.47Z"/><path class="cls-4" d="M142.89,66.23a5.4,5.4,0,0,0-1,.34c-.57.31-1.09.71-1.66,1a8.14,8.14,0,0,1-1.58.75c-1.18.36-1.89,1.38-2.91,2-.42.22-.87.38-1.28.62s-1.07.71-1.61,1c-.32.2-.68.34-1,.53-.8.45-1.59.91-2.39,1.35l-1.29.69a.76.76,0,0,0-.25.18c-1,1.31-2.44,1.74-3.81,2.37-.24.11-.49.22-.72.35a.82.82,0,0,1-1.26-.27c-.31-.62-.15-1.18.44-1.38a25.61,25.61,0,0,0,5.3-2.68c.4-.24.85-.42,1.24-.68.69-.46,1.35-1,2-1.43a4.79,4.79,0,0,1,1.91-.88,2.72,2.72,0,0,0,1.58-1A5.14,5.14,0,0,1,136.38,68,21.43,21.43,0,0,0,140,65.76a10.19,10.19,0,0,1,1.86-1,1.39,1.39,0,0,0,.52-.47,1,1,0,0,1,1.27-.41.6.6,0,0,1,.39.85,8.89,8.89,0,0,1-.52,1.23c-.08.17-.31.26-.47.39Z"/><path class="cls-4" d="M122.81,78.22a1.34,1.34,0,0,1-1.21-.78,1.74,1.74,0,0,1-.12-1.43,1.46,1.46,0,0,1,.92-.81,24.37,24.37,0,0,0,5-2.55l.12-.07c.2-.12.4-.22.6-.33a4.65,4.65,0,0,0,.62-.34c.34-.22.67-.46,1-.7s.69-.49,1.05-.73a5.11,5.11,0,0,1,2.14-1,2.22,2.22,0,0,0,1.2-.76,4,4,0,0,1,1.46-1l.45-.22.61-.34a17,17,0,0,0,2.87-1.85,5.12,5.12,0,0,1,1.33-.74c.21-.09.43-.18.63-.29a.84.84,0,0,0,.29-.25,1.66,1.66,0,0,1,2-.67,1.21,1.21,0,0,1,.76,1.63,8.28,8.28,0,0,1-.55,1.32,1.39,1.39,0,0,1-.52.51l-.12.07a.6.6,0,0,1-.48.12.44.44,0,0,1-.19-.07,3.4,3.4,0,0,0-.49.18c-.28.16-.54.33-.81.5s-.56.37-.85.53a8.58,8.58,0,0,1-1.71.8,4.49,4.49,0,0,0-1.55,1,7.16,7.16,0,0,1-1.24.9c-.21.12-.42.21-.64.31s-.42.19-.62.31-.58.36-.86.55l-.74.49c-.2.12-.42.23-.63.34s-.27.13-.4.2l-1.16.66-1.23.7-.74.39-.66.36a7.06,7.06,0,0,1-3.26,2.19l-.73.32-.15.06a5.2,5.2,0,0,0-.53.26A1.81,1.81,0,0,1,122.81,78.22Zm20.38-13.76a.39.39,0,0,0-.33.18,2.07,2.07,0,0,1-.76.7c-.23.12-.48.23-.73.34a3.91,3.91,0,0,0-1,.54,17.66,17.66,0,0,1-3.07,2l-.6.33-.51.27a2.81,2.81,0,0,0-1,.7,3.35,3.35,0,0,1-2,1.21,3.91,3.91,0,0,0-1.59.74c-.41.27-.74.51-1.07.74s-.69.5-1,.73a6.86,6.86,0,0,1-.75.42c-.18.09-.35.17-.52.27l-.11.07a25.67,25.67,0,0,1-5.31,2.68.22.22,0,0,0-.16.11.52.52,0,0,0,.08.4c0,.11.09.11.12.11a.65.65,0,0,0,.28-.09,5.38,5.38,0,0,1,.64-.31l.14-.07.76-.33a6.09,6.09,0,0,0,2.8-1.84,1.29,1.29,0,0,1,.44-.35l.59-.31.71-.38,1.23-.7,1.16-.65c.15-.09.3-.16.46-.24s.36-.18.52-.28l.7-.46q.45-.32.93-.6c.24-.14.49-.25.74-.37a5.52,5.52,0,0,0,.55-.26,6.71,6.71,0,0,0,1-.77,5.57,5.57,0,0,1,2-1.22,8,8,0,0,0,1.43-.68c.3-.17.56-.34.82-.5s.58-.38.88-.55a3.42,3.42,0,0,1,.8-.3l.28-.08a.58.58,0,0,1,.29,0,9.57,9.57,0,0,0,.42-1.05.42.42,0,0,0,0-.1Z"/><path class="cls-4" d="M74.75,57.79c-.23-.63-.44-1.26-.69-1.88-.44-1.13-.9-2.25-1.36-3.38l-.45-1.13c-.5-1.31-1-2.61-1.49-3.91-.6-1.52-1.2-3-1.84-4.54-.52-1.25-1.07-2.49-1.64-3.72-.38-.82-.79-1.62-1.21-2.42-.26-.49.26-1.63.81-1.64a.91.91,0,0,1,.64.48c.88,2,1.72,4.09,2.56,6.14.73,1.75,1.47,3.48,2.16,5.24.51,1.32.94,2.66,1.43,4a10.68,10.68,0,0,0,.57,1.3c.42.82.84,1.65,1.32,2.44a1.83,1.83,0,0,1,0,2.15C75.16,57.48,74.92,57.75,74.75,57.79Z"/><path class="cls-4" d="M74.75,58.4a.6.6,0,0,1-.57-.4L74,57.37c-.15-.42-.3-.83-.46-1.24-.3-.76-.61-1.52-.92-2.28l-.43-1.09c-.16-.38-.31-.76-.46-1.15L71.1,50.1c-.3-.8-.6-1.59-.91-2.39-.6-1.51-1.2-3-1.83-4.53-.48-1.14-1-2.35-1.63-3.69-.38-.81-.79-1.61-1.21-2.4a1.9,1.9,0,0,1,.2-1.74,1.42,1.42,0,0,1,1.15-.79,1.49,1.49,0,0,1,1.21.85c.72,1.67,1.41,3.34,2.1,5L71.26,43c.53,1.26,1,2.52,1.55,3.79.32.81.6,1.63.89,2.45l.54,1.55A11,11,0,0,0,74.78,52c.39.75.82,1.6,1.3,2.4a2.42,2.42,0,0,1,0,2.81c-.45.67-.75,1-1.14,1.13A.44.44,0,0,1,74.75,58.4ZM66.88,35.82a1.05,1.05,0,0,0-.26.72c.41.79.83,1.6,1.22,2.43.62,1.36,1.16,2.58,1.65,3.74q.95,2.26,1.84,4.56c.31.79.62,1.59.92,2.39l.57,1.52.45,1.12.44,1.09c.31.76.62,1.52.92,2.29.13.32.24.64.36,1l.05-.07a1.23,1.23,0,0,0,0-1.5c-.51-.83-1-1.7-1.35-2.47a12.75,12.75,0,0,1-.6-1.37c-.19-.52-.37-1-.55-1.57-.28-.8-.56-1.61-.87-2.4-.49-1.27-1-2.51-1.54-3.76l-1.08-2.6c-.69-1.67-1.38-3.35-2.09-5Z"/><path class="cls-4" d="M125.37,47c.43.94-.16,1.46-.71,2.07a21,21,0,0,0-3.5,5.4,8.91,8.91,0,0,1-.9,1.47,7.45,7.45,0,0,0-1.23,3c-.09.52-.35.6-.76.58-.67-.05-1-.33-1-.79a2.5,2.5,0,0,1,.27-.81c.34-.7.7-1.39,1.06-2.08.1-.2.17-.41.28-.6.52-.93,1-1.86,1.59-2.78s1.15-1.94,1.72-2.91,1.2-2.08,1.83-3.1c.19-.3.47-.72.88-.45s.45.62.67,1Z"/><path class="cls-4" d="M118.4,60.1h-.17a1.72,1.72,0,0,1-1.29-.56,1.18,1.18,0,0,1-.26-.91,3.2,3.2,0,0,1,.32-1c.22-.45.45-.9.68-1.34l.39-.76c0-.07.07-.15.11-.23a2.81,2.81,0,0,1,.19-.39c.52-.93,1-1.87,1.59-2.79.3-.52.61-1,.92-1.56s.54-.9.8-1.35l.62-1.05c.4-.69.8-1.38,1.22-2.06a1.45,1.45,0,0,1,1.14-.83,1.09,1.09,0,0,1,.61.19,2.21,2.21,0,0,1,.67.84,2.54,2.54,0,0,0,.16.28.62.62,0,0,1,.07.53.52.52,0,0,1-.07.15,2.38,2.38,0,0,1-.86,2.09l-.12.13a20,20,0,0,0-3.4,5.24,10.24,10.24,0,0,1-1,1.57A6.86,6.86,0,0,0,119.63,59,1.16,1.16,0,0,1,118.4,60.1Zm-.5-1.33s.09.08.41.11h.1s0,0,0-.07a8.23,8.23,0,0,1,1.34-3.22,9.53,9.53,0,0,0,.84-1.37,21.22,21.22,0,0,1,3.61-5.56l.13-.14c.56-.61.68-.82.47-1.27a.59.59,0,0,1,0-.47.77.77,0,0,0-.13-.2s-.06.1-.11.16c-.41.67-.81,1.36-1.2,2l-.62,1.06-.81,1.35c-.31.51-.61,1-.92,1.55-.53.92-1.06,1.84-1.58,2.77-.05.09-.09.19-.13.28l-.14.3-.39.76c-.23.44-.45.87-.66,1.31a2.05,2.05,0,0,0-.21.62Z"/><path class="cls-4" d="M87,43.7a12.09,12.09,0,0,1,.92-.83c.52-.39.75,0,.9.42a3.45,3.45,0,0,1,.15,1c.12,1.64.23,3.28.32,4.92.05,1.11,0,2.23.11,3.33A4.07,4.07,0,0,0,90,54.26,1.93,1.93,0,0,1,89.56,57c-.1.07-.51-.08-.57-.21-.2-.53-.62-.93-.58-1.63A17.73,17.73,0,0,0,88,52.56c-.08-.72,0-1.47,0-2.2q-.21-2.88-.5-5.75a3.09,3.09,0,0,0-.31-.79Z"/><path class="cls-4" d="M89.48,57.67A1.22,1.22,0,0,1,88.42,57a3.37,3.37,0,0,0-.19-.38,2.54,2.54,0,0,1-.43-1.49,4.68,4.68,0,0,0-.21-1.38,8.5,8.5,0,0,1-.23-1.16,7.71,7.71,0,0,1,0-1.27c0-.32,0-.64,0-1-.15-2.06-.34-4-.5-5.73a1.44,1.44,0,0,0-.14-.34,1,1,0,0,0-.07-.15l-.05,0a.6.6,0,0,1-.18-.44.57.57,0,0,1,.2-.44l.26-.25a6.89,6.89,0,0,1,.7-.62,1.29,1.29,0,0,1,.75-.28c.73,0,1,.74,1.09,1a3.63,3.63,0,0,1,.19,1.09l0,.77c.1,1.4.2,2.8.27,4.21,0,.45,0,.91,0,1.36,0,.67,0,1.31.08,1.94a3.45,3.45,0,0,0,.45,1.48,2.52,2.52,0,0,1-.58,3.61A.8.8,0,0,1,89.48,57.67ZM87.82,43.79h0a2.35,2.35,0,0,1,.26.76c.16,1.69.35,3.69.5,5.76a10.23,10.23,0,0,1,0,1.11,7.78,7.78,0,0,0,0,1.08,7.63,7.63,0,0,0,.21,1A5.65,5.65,0,0,1,89,55.24a1.44,1.44,0,0,0,.28.82c0,.09.1.18.14.27a1.38,1.38,0,0,0,0-1.74,4.87,4.87,0,0,1-.63-2c-.06-.69-.07-1.37-.08-2,0-.44,0-.88,0-1.32-.08-1.4-.17-2.79-.27-4.19l0-.72a3.19,3.19,0,0,0-.11-.79l0-.1Z"/><path class="cls-4" d="M65.22,69.52c-.09.66-.61.77-1,.94-.14.05-.42-.22-.62-.36s-.65-.46-1-.7a34.54,34.54,0,0,0-4.52-2.53,6.76,6.76,0,0,0-2.36-.67,1.14,1.14,0,0,1-1-1,1.53,1.53,0,0,1,.39-1.15c.59-.61.62-.52,1.41,0a21.59,21.59,0,0,0,2.32,1.26c1.15.59,2.31,1.13,3.47,1.71a15.93,15.93,0,0,1,2.31,1.23C65,68.5,65,69.09,65.22,69.52Z"/><path class="cls-4" d="M64.18,71.08a1.33,1.33,0,0,1-.79-.37l-.13-.1c-.34-.23-.68-.47-1-.72a17.54,17.54,0,0,0-3-1.73c-.49-.25-1-.49-1.46-.75a6,6,0,0,0-2.13-.6,1.74,1.74,0,0,1-1.55-1.48,2.12,2.12,0,0,1,.55-1.69,1.5,1.5,0,0,1,1-.62,1.8,1.8,0,0,1,1,.43l.14.1a21.56,21.56,0,0,0,2,1.1l.26.13,1.91.94,1.56.76.56.27a11.11,11.11,0,0,1,1.84,1,2.06,2.06,0,0,1,.66,1.13c0,.13.08.26.13.38a.58.58,0,0,1,0,.32A1.66,1.66,0,0,1,64.58,71l-.13,0A.82.82,0,0,1,64.18,71.08Zm-8.42-6.79-.19.2a1,1,0,0,0-.24.59c.08.39.24.48.5.51a7.17,7.17,0,0,1,2.57.75q.7.38,1.41.72A19.71,19.71,0,0,1,63,68.91c.31.24.63.47,1,.69l.19.14.07.06c.23-.09.32-.15.37-.24a2.47,2.47,0,0,1-.1-.29,1.66,1.66,0,0,0-.21-.51,10.36,10.36,0,0,0-1.65-.91l-.57-.27-1.55-.76-1.93-.95-.26-.13a20.12,20.12,0,0,1-2.12-1.17l-.15-.1Z"/><path class="cls-3" d="M57.61,151.24,56.09,153a8.12,8.12,0,0,1-.64-2.13c-.08-2.77.13-5.56-.09-8.31s3.32-4.91,5.78-4.2a2.21,2.21,0,0,1,1.56,2.3,13.29,13.29,0,0,0,.95,6c.67,1.44-1.1,3.6-2.91,4C59.59,150.94,58.42,151.1,57.61,151.24Zm-.64-2c1.93.62,3.57.32,4.72-1.13a2.7,2.7,0,0,0,.18-2c-.2-.88-.95-.73-1.64-.52-1,.33-2.1.63-3.26,1Zm.25-4.55c.82-.27,1.54-.49,2.25-.74a2.41,2.41,0,0,0,1.78-2.79c-.09-1.23-.72-1.67-1.87-1.32C57.48,140.41,56.63,142.21,57.22,144.68Z"/><path class="cls-3" d="M56.09,153.23H56a.27.27,0,0,1-.19-.17c-.07-.22-.15-.44-.24-.65a4.51,4.51,0,0,1-.41-1.55c0-1.11,0-2.24,0-3.33,0-1.63,0-3.32-.09-5a3.69,3.69,0,0,1,1.09-2.79,5.37,5.37,0,0,1,5-1.67A2.46,2.46,0,0,1,63,140.64a13,13,0,0,0,.93,5.9,2.27,2.27,0,0,1-.13,2,4.76,4.76,0,0,1-3,2.41c-.83.19-1.65.32-2.38.44l-.67.11-1.46,1.68A.27.27,0,0,1,56.09,153.23Zm4.08-14.77a5.18,5.18,0,0,0-3.61,1.64,3.22,3.22,0,0,0-1,2.42c.13,1.67.11,3.37.09,5,0,1.08,0,2.2,0,3.3a4.27,4.27,0,0,0,.38,1.39l.1.27,1.24-1.42a.23.23,0,0,1,.14-.08c.23-.05.49-.09.77-.13.72-.12,1.54-.25,2.35-.44a4.25,4.25,0,0,0,2.62-2.14,1.85,1.85,0,0,0,.13-1.54,13.34,13.34,0,0,1-1-6.11,2,2,0,0,0-1.38-2.06A3.26,3.26,0,0,0,60.17,138.46Zm-1.43,11.33h0a6.1,6.1,0,0,1-1.85-.32.26.26,0,0,1-.17-.24v-2.65a.25.25,0,0,1,.17-.24l1-.31,2.21-.66a3.13,3.13,0,0,1,.91-.18,1,1,0,0,1,1,.87,2.94,2.94,0,0,1-.23,2.2A3.85,3.85,0,0,1,58.74,149.79ZM57.22,149A3.69,3.69,0,0,0,61.49,148a2.45,2.45,0,0,0,.14-1.77c-.08-.35-.25-.49-.57-.49a2.93,2.93,0,0,0-.76.15l-2.22.67-.86.25Zm0-4.11-.12,0a.22.22,0,0,1-.12-.16c-.61-2.55.28-4.53,2.32-5.15a2.53,2.53,0,0,1,.77-.13c.6,0,1.33.29,1.43,1.67a2.63,2.63,0,0,1-2,3c-.5.18-1,.34-1.54.52l-.71.23Zm2.85-5a2.2,2.2,0,0,0-.62.11c-1.73.52-2.48,2.12-2,4.29l.44-.15c.54-.17,1-.33,1.53-.51A2.16,2.16,0,0,0,61,141.16C60.92,140.09,60.43,140,60.07,140Z"/><path class="cls-3" d="M100.05,137.22c2,.89,1.4,2.42,1.54,3.59.24,2.08.23,4.18.33,6.46.46-.23.71-.37,1-.48a2.39,2.39,0,0,1,3.44,1.72c.26,1,.47,2,.7,3l1.57-.38c.42.87.38,1.55-.58,1.86a1.9,1.9,0,0,1-2.59-1.12c-.21-.78-.28-1.6-.54-2.36a5.84,5.84,0,0,0-.82-1.27c-.41.34-1,.61-1.19,1a20.84,20.84,0,0,0-.73,3.51c-.1.63,0,1.37-.88,1.41s-1-.78-1-1.44c0-2.34.06-4.68,0-7s-.31-4.52-.43-6.79A10.93,10.93,0,0,1,100.05,137.22Z"/><path class="cls-3" d="M101.19,154.44c-1.13,0-1.13-1-1.13-1.6v-.09c0-.9,0-1.8,0-2.7,0-1.41,0-2.87,0-4.3s-.15-2.71-.24-4c-.07-.92-.14-1.84-.19-2.76a6.55,6.55,0,0,1,.09-1.14c0-.2.06-.41.09-.64a.25.25,0,0,1,.12-.19.26.26,0,0,1,.23,0,2.66,2.66,0,0,1,1.67,3,6.64,6.64,0,0,0,0,.78c.17,1.46.22,2.92.27,4.46,0,.54,0,1.08.06,1.63l.07,0c.22-.11.39-.2.56-.27a3.11,3.11,0,0,1,1.23-.27,2.64,2.64,0,0,1,2.55,2.16c.18.71.34,1.42.5,2.13l.15.62,1.32-.33a.26.26,0,0,1,.29.14,1.77,1.77,0,0,1,.18,1.48,1.39,1.39,0,0,1-.91.73,2.73,2.73,0,0,1-.89.15,2,2,0,0,1-2-1.44c-.09-.34-.16-.68-.22-1a10.61,10.61,0,0,0-.31-1.32,3.07,3.07,0,0,0-.5-.81l-.14-.19-.24.17c-.29.19-.59.39-.66.6a21.9,21.9,0,0,0-.73,3.47q0,.13,0,.3c0,.53-.12,1.27-1.08,1.32Zm-.94-16.84c0,.1,0,.2,0,.3a5.63,5.63,0,0,0-.09,1c0,.92.12,1.83.19,2.75.09,1.32.19,2.69.24,4s0,2.91,0,4.33c0,.9,0,1.79,0,2.69v.09c0,.77.06,1.1.63,1.1h.07c.48,0,.54-.24.6-.87,0-.11,0-.22,0-.33a21.1,21.1,0,0,1,.75-3.54,1.85,1.85,0,0,1,.86-.87c.14-.1.28-.19.4-.29a.25.25,0,0,1,.2-.06.25.25,0,0,1,.17.11l.28.38a3.38,3.38,0,0,1,.57.95,11.66,11.66,0,0,1,.33,1.39c.06.33.12.66.21,1a1.5,1.5,0,0,0,1.54,1.07,2.34,2.34,0,0,0,.73-.13.86.86,0,0,0,.61-.45,1.19,1.19,0,0,0-.09-.88l-1.37.34a.3.3,0,0,1-.19,0,.28.28,0,0,1-.12-.16l-.19-.87c-.16-.71-.32-1.41-.5-2.11a2.14,2.14,0,0,0-2.07-1.79,2.64,2.64,0,0,0-1,.23c-.17.06-.32.15-.53.25l-.42.22a.25.25,0,0,1-.24,0,.3.3,0,0,1-.13-.21c0-.69,0-1.36-.07-2,0-1.53-.1-3-.26-4.42a6.14,6.14,0,0,1,0-.86C101.34,139.08,101.37,138.22,100.25,137.6Z"/><path class="cls-3" d="M154.92,147.88a6.57,6.57,0,0,0,1.55,1.07,7,7,0,0,0,5.71-.53c.23-.14.49-.38.71-.35a1.59,1.59,0,0,1,1.05.45,1.06,1.06,0,0,1-.29,1,10.2,10.2,0,0,1-7.09,1.17,3.52,3.52,0,0,1-3-3,4.51,4.51,0,0,1,1.17-4.17,2.6,2.6,0,0,1,1.24-.86c.88-.18,1.87-.21,2.32.84a2.26,2.26,0,0,1-.77,2.87A27,27,0,0,1,154.92,147.88Z"/><path class="cls-3" d="M158.56,151.14a10.85,10.85,0,0,1-2-.2,3.78,3.78,0,0,1-3.21-3.22,4.79,4.79,0,0,1,1.24-4.39,2.76,2.76,0,0,1,1.37-.94,5.16,5.16,0,0,1,.87-.1,1.72,1.72,0,0,1,1.73,1.1,2.52,2.52,0,0,1-.84,3.16,11.9,11.9,0,0,1-1.59,1l-.72.4.27.21a2.62,2.62,0,0,0,.9.59,6.69,6.69,0,0,0,5.52-.51l.17-.11a1.15,1.15,0,0,1,.63-.27h.07a1.79,1.79,0,0,1,1.22.57.87.87,0,0,1,0,.67,1.17,1.17,0,0,1-.41.68A10.55,10.55,0,0,1,158.56,151.14Zm-1.77-8.35a4.14,4.14,0,0,0-.78.09,2.5,2.5,0,0,0-1.1.79,4.26,4.26,0,0,0-1.11,4,3.28,3.28,0,0,0,2.81,2.83,10,10,0,0,0,6.92-1.15.93.93,0,0,0,.19-.65,1.37,1.37,0,0,0-.86-.33h0a1.06,1.06,0,0,0-.35.18,1.13,1.13,0,0,1-.2.13,6.65,6.65,0,0,1-3.43.94h0a9,9,0,0,1-2.48-.38,3.06,3.06,0,0,1-1.08-.68c-.17-.14-.35-.29-.55-.43a.23.23,0,0,1-.1-.22.24.24,0,0,1,.12-.2l1.06-.59a10.66,10.66,0,0,0,1.52-.92,2,2,0,0,0,.69-2.57A1.23,1.23,0,0,0,156.79,142.79Z"/><path class="cls-3" d="M138.06,146.17c0,1.77-1.42,2.29-2.66,2.86-1.79.84-2,1.12-1.82,3.05a12.6,12.6,0,0,1-.12,3.07c-.06.4-.64.71-1,1.07-.25-.47-.74-.94-.71-1.39.14-2.37.43-4.73.6-7.1a2.55,2.55,0,0,0-.35-1.6c-.74-1-.2-1.6.42-2.26a3.68,3.68,0,0,1,3.72-1A3.44,3.44,0,0,1,138.06,146.17ZM133.64,148c1-.44,1.79-.56,2.18-1a2.49,2.49,0,0,0,.39-1.76,1.28,1.28,0,0,0-1-.78c-.45,0-1.2.27-1.3.58A16.06,16.06,0,0,0,133.64,148Z"/><path class="cls-3" d="M132.48,156.47h0a.25.25,0,0,1-.19-.12,3.3,3.3,0,0,0-.27-.42,1.85,1.85,0,0,1-.47-1.1c.07-1.33.2-2.68.33-4,.1-1,.2-2.08.27-3.12a2.26,2.26,0,0,0-.3-1.44c-.88-1.18-.15-2,.44-2.58a4.18,4.18,0,0,1,2.91-1.23,2.81,2.81,0,0,1,1.08.19,3.71,3.71,0,0,1,2.06,3.51c0,1.81-1.36,2.43-2.55,3l-.25.12c-1.72.8-1.83,1-1.68,2.8a12.49,12.49,0,0,1-.12,3.13,1.7,1.7,0,0,1-.7.89,3.52,3.52,0,0,0-.35.31A.23.23,0,0,1,132.48,156.47Zm2.69-13.5a3.68,3.68,0,0,0-2.55,1.07c-.64.68-1,1.14-.4,1.94a2.8,2.8,0,0,1,.4,1.77c-.07,1.05-.17,2.1-.27,3.14-.13,1.3-.26,2.64-.33,4a1.51,1.51,0,0,0,.38.78l.14.2.15-.13c.24-.2.5-.41.52-.59a11.55,11.55,0,0,0,.12-3c-.16-2,.06-2.4,2-3.29l.26-.12c1.15-.53,2.24-1,2.25-2.52a3.18,3.18,0,0,0-1.75-3A2.21,2.21,0,0,0,135.17,143Zm-1.53,5.28a.23.23,0,0,1-.14,0,.26.26,0,0,1-.11-.23c0-.38.05-.73.06-1.06a8.25,8.25,0,0,1,.25-2c.13-.46,1-.76,1.49-.76h.05a1.52,1.52,0,0,1,1.22,1,2.78,2.78,0,0,1-.45,2,3,3,0,0,1-1.34.71c-.28.1-.59.21-.93.36A.16.16,0,0,1,133.64,148.25Zm1.55-3.8v.25a1.55,1.55,0,0,0-1,.4,8.59,8.59,0,0,0-.22,1.84c0,.22,0,.44,0,.68l.58-.22a2.68,2.68,0,0,0,1.13-.57,2.35,2.35,0,0,0,.33-1.58,1.15,1.15,0,0,0-.74-.55Z"/><path class="cls-3" d="M128.1,140.85l-2-.76c-.27.81-.57,1.66-.9,2.63a21.64,21.64,0,0,1,2.34.53,3.19,3.19,0,0,1,1.72,4.52,5.39,5.39,0,0,1-5.69,2.6,2.71,2.71,0,0,1-1-.5,1.06,1.06,0,0,1-.2-1.74,1,1,0,0,1,1.62.1c1.07,1.41,1.95.37,2.87-.17a2,2,0,0,0,.89-2.65c-.2-.42-1-.66-1.58-.8-1-.25-2.19-.18-2.47-1.56s.47-3.75,1.51-4.08a5.13,5.13,0,0,1,2.78.21c.28.07.36.9.53,1.38Z"/><path class="cls-3" d="M124.56,150.74a4.26,4.26,0,0,1-1.08-.13,2.9,2.9,0,0,1-1-.54,1.56,1.56,0,0,1-.67-1,1.38,1.38,0,0,1,.44-1.06,1.21,1.21,0,0,1,2,.12,1.26,1.26,0,0,0,.93.61,2.26,2.26,0,0,0,1.15-.54l.47-.31a1.7,1.7,0,0,0,.79-2.33c-.11-.23-.58-.46-1.41-.66l-.53-.11c-.87-.16-1.86-.34-2.12-1.64s.45-4,1.67-4.37a2.9,2.9,0,0,1,.91-.13,8.28,8.28,0,0,1,2,.33c.33.1.44.54.56,1a4.5,4.5,0,0,0,.13.5.25.25,0,0,1-.09.29l-.43.3a.27.27,0,0,1-.23,0l-1.8-.68-.72,2.12.62.13a10.59,10.59,0,0,1,1.47.35,3.37,3.37,0,0,1,2,1.94,3.52,3.52,0,0,1-.16,2.94A5.75,5.75,0,0,1,124.56,150.74ZM123.17,148a.84.84,0,0,0-.6.31.94.94,0,0,0-.3.68,1.1,1.1,0,0,0,.47.69,2.59,2.59,0,0,0,.86.46,4.28,4.28,0,0,0,1,.11,5.21,5.21,0,0,0,4.45-2.58,3.07,3.07,0,0,0,.14-2.53,2.84,2.84,0,0,0-1.72-1.64,9.42,9.42,0,0,0-1.41-.34c-.28-.06-.57-.11-.9-.19a.22.22,0,0,1-.16-.12.2.2,0,0,1,0-.2l.89-2.63a.25.25,0,0,1,.33-.16l1.91.72.17-.12c0-.11-.06-.24-.09-.36a2,2,0,0,0-.23-.68,5.38,5.38,0,0,0-2.62-.21c-.87.29-1.58,2.6-1.33,3.8.2,1,.87,1.1,1.72,1.25.18,0,.37.07.55.12.7.16,1.52.42,1.75.94a2.19,2.19,0,0,1-1,3l-.45.3a2.73,2.73,0,0,1-1.43.62,1.69,1.69,0,0,1-1.32-.81A.87.87,0,0,0,123.17,148Z"/><path class="cls-3" d="M85.65,145.59a3.32,3.32,0,0,1,4.85,2.62,29.85,29.85,0,0,1,.27,3.86H89.56a28.6,28.6,0,0,0-.8-4c-.17-.53-1-.84-1.54-1.25a6.29,6.29,0,0,0-.84,1.81,15.22,15.22,0,0,0,.1,3.09c.07.77-.2,1.37-.92,1.35-.31,0-.79-.74-.88-1.2-.39-2.1-.69-4.22-1-6.34a1,1,0,0,1,.23-.79.93.93,0,0,1,.86,0A5,5,0,0,1,85.65,145.59Z"/><path class="cls-3" d="M85.6,153.28h0c-.51,0-1-.92-1.12-1.4-.39-2.07-.69-4.18-1-6.23l0-.13a1.19,1.19,0,0,1,.34-1,1.07,1.07,0,0,1,.58-.15,1.09,1.09,0,0,1,.55.14,3,3,0,0,1,.68.66c0,.05.09.1.13.16a4.46,4.46,0,0,1,1.56-.31,3.53,3.53,0,0,1,3.47,3.17,16.56,16.56,0,0,1,.22,2.66c0,.41,0,.82,0,1.23a.23.23,0,0,1-.07.19.23.23,0,0,1-.18.08H89.56a.25.25,0,0,1-.24-.21c-.08-.4-.14-.8-.2-1.19a17.47,17.47,0,0,0-.59-2.81c-.1-.28-.49-.52-.88-.75l-.34-.22-.18.32a3.21,3.21,0,0,0-.5,1.16,14.22,14.22,0,0,0,.08,2.84l0,.2a1.64,1.64,0,0,1-.32,1.28A1.06,1.06,0,0,1,85.6,153.28Zm-1.24-8.44a.65.65,0,0,0-.3.06.88.88,0,0,0-.12.56l0,.12c.28,2,.58,4.15,1,6.21a1.74,1.74,0,0,0,.64,1h0a.57.57,0,0,0,.44-.17,1.19,1.19,0,0,0,.19-.9l0-.2a13.85,13.85,0,0,1-.07-2.95,3.53,3.53,0,0,1,.56-1.35c.1-.18.21-.36.3-.54a.24.24,0,0,1,.17-.14.23.23,0,0,1,.21.05c.16.12.34.23.53.35.46.28.94.57,1.09,1a17.9,17.9,0,0,1,.61,2.89c0,.32.1.65.16,1h.74c0-.33,0-.66,0-1a15.4,15.4,0,0,0-.21-2.58,3,3,0,0,0-3-2.76,4,4,0,0,0-1.54.33.25.25,0,0,1-.28-.06l-.26-.3a2.48,2.48,0,0,0-.56-.56A.52.52,0,0,0,84.36,144.84Z"/><path class="cls-3" d="M144.36,148.67c-.46.21-.73.36-1,.46-1,.31-2.15.68-2.64-.4a4.27,4.27,0,0,1-.07-3c.61-1.53,2.14-2.05,3.71-2.07a1.49,1.49,0,0,1,1.09.91c.43,1.94.74,3.91,1,5.88.05.32-.2.69-.31,1-.38-.22-.93-.36-1.11-.7A11.63,11.63,0,0,1,144.36,148.67Zm-1.17-3.32a1.93,1.93,0,0,0-1.31,2.15c0,.1.51.25.66.16a1.52,1.52,0,0,0,.82-2.2S143.29,145.41,143.19,145.35Z"/><path class="cls-3" d="M146.14,151.75a.31.31,0,0,1-.13,0,3,3,0,0,0-.36-.19,1.65,1.65,0,0,1-.84-.61,6.29,6.29,0,0,1-.5-1.48c0-.14-.07-.28-.11-.42l-.15.07a4.81,4.81,0,0,1-.64.28,5.39,5.39,0,0,1-1.56.33,1.41,1.41,0,0,1-1.39-.87,4.49,4.49,0,0,1-.07-3.19c.57-1.42,1.93-2.19,3.93-2.22a1.71,1.71,0,0,1,1.34,1.11c.45,2,.77,4.1,1,5.89a1.64,1.64,0,0,1-.2.85,2.85,2.85,0,0,0-.12.31.26.26,0,0,1-.15.16Zm-1.78-3.33.1,0a.25.25,0,0,1,.14.16c.07.25.13.49.19.72a6.37,6.37,0,0,0,.46,1.36,1.4,1.4,0,0,0,.61.4l.15.07,0-.08a1.19,1.19,0,0,0,.16-.58c-.26-1.78-.58-3.85-1-5.86a1.27,1.27,0,0,0-.84-.71,3.51,3.51,0,0,0-3.48,1.91,4,4,0,0,0,.07,2.8.92.92,0,0,0,.93.57,4.92,4.92,0,0,0,1.4-.31,4.41,4.41,0,0,0,.58-.25l.43-.2Zm-2-.48c-.11,0-.72-.07-.78-.39a2.19,2.19,0,0,1,1.45-2.43.26.26,0,0,1,.24,0l.08,0a.36.36,0,0,1,.19.18,1.77,1.77,0,0,1-.93,2.52A.49.49,0,0,1,142.41,147.94Zm-.29-.57a.88.88,0,0,0,.29.07c.86-.45,1.1-1,.76-1.8A1.63,1.63,0,0,0,142.12,147.37Z"/><path class="cls-3" d="M116.19,144.1a10.22,10.22,0,0,1,2-.71,3.78,3.78,0,0,1,1.34.4,4.22,4.22,0,0,1-.75,1.16,2,2,0,0,1-1.27.35c-1.49-.11-1.6.81-1.52,1.9a17.47,17.47,0,0,1,.16,2.28,3.62,3.62,0,0,1-.59,1.2c-.34-.35-.88-.65-1-1.05a22.43,22.43,0,0,1-.21-2.47,13.81,13.81,0,0,0-.53-1.83c-.64.91-2.29,1.27-2.76.77a.88.88,0,0,1-.24-.7,1.31,1.31,0,0,1,.69-.7,4,4,0,0,1,1.2,0c1.08,0,1.82-.35,1.83-1.6a4.37,4.37,0,0,1,.19-1.59c.13-.32.62-.48.95-.71a3.89,3.89,0,0,1,.58,1.15A14.77,14.77,0,0,1,116.19,144.1Z"/><path class="cls-3" d="M115.6,150.93a.27.27,0,0,1-.18-.08c-.1-.1-.22-.19-.33-.29a1.72,1.72,0,0,1-.71-.88,6.61,6.61,0,0,1-.15-1.47,8.59,8.59,0,0,0-.07-1,7.25,7.25,0,0,0-.3-1.12l-.09-.25a3,3,0,0,1-1.94.75,1.2,1.2,0,0,1-.89-.3,1.06,1.06,0,0,1-.29-1,1.52,1.52,0,0,1,.85-.84,2.31,2.31,0,0,1,.88,0l.39,0h.07c1,0,1.5-.4,1.51-1.35V143a4.22,4.22,0,0,1,.21-1.55,1.43,1.43,0,0,1,.72-.62,3.37,3.37,0,0,0,.32-.19.28.28,0,0,1,.2,0,.23.23,0,0,1,.16.13c.06.11.13.22.2.33a2.23,2.23,0,0,1,.41.9,7.08,7.08,0,0,1-.06,1.43c0,.11,0,.24,0,.37l.4-.17a4.94,4.94,0,0,1,1.33-.42,2,2,0,0,1,1,.26l.39.15a.26.26,0,0,1,.16.15.24.24,0,0,1,0,.22c-.07.12-.14.24-.2.37a1.91,1.91,0,0,1-2,1.26,1.22,1.22,0,0,0-1,.25,2,2,0,0,0-.23,1.38c0,.26,0,.52.07.77a8.73,8.73,0,0,1,.09,1.54,2,2,0,0,1-.41.95l-.21.35a.24.24,0,0,1-.18.14Zm-1.72-5.85h0a.26.26,0,0,1,.2.18c.07.23.14.45.21.65a6.88,6.88,0,0,1,.33,1.21,9.77,9.77,0,0,1,.07,1.07,6.81,6.81,0,0,0,.13,1.38c0,.2.3.4.54.6l.14.12a.75.75,0,0,0,.07-.12,1.56,1.56,0,0,0,.33-.71,8,8,0,0,0-.08-1.45c0-.26-.07-.53-.08-.79a2.29,2.29,0,0,1,.36-1.76,1.67,1.67,0,0,1,1.42-.41,1.77,1.77,0,0,0,1.11-.3,2,2,0,0,0,.46-.68l.08-.15-.16-.06a2,2,0,0,0-.74-.22,4.42,4.42,0,0,0-1.25.38l-.78.32a.26.26,0,0,1-.24,0,.23.23,0,0,1-.1-.22c0-.28,0-.54.07-.78a6.12,6.12,0,0,0,.06-1.32,1.84,1.84,0,0,0-.33-.68l-.09-.14-.13.08a1.22,1.22,0,0,0-.5.37,3.94,3.94,0,0,0-.17,1.36v.14c0,1.23-.69,1.85-2,1.85h-.08l-.43,0a2,2,0,0,0-.69,0,1.14,1.14,0,0,0-.53.57.8.8,0,0,0,.2.43.74.74,0,0,0,.52.14,2.45,2.45,0,0,0,1.84-.89A.28.28,0,0,1,113.88,145.08Z"/><path class="cls-3" d="M80.05,145.87l1.64.21c-.12,1.85-.12,3.64-.41,5.39s-2.28,3-3.65,2.54a3.42,3.42,0,0,1-2-1.7,19.07,19.07,0,0,1-.74-4.47c0-.26.51-.58.79-.87.25.32.66.62.73,1a23,23,0,0,0,.38,3c.22.66,1,1.16,1.45,1.73.54-.61,1.39-1.15,1.56-1.84a22,22,0,0,0,.27-4C80.07,146.58,80.05,146.28,80.05,145.87Z"/><path class="cls-3" d="M78.21,154.36a2.14,2.14,0,0,1-.67-.11,3.75,3.75,0,0,1-2.17-1.86,16.35,16.35,0,0,1-.69-3.95l-.06-.58c0-.31.26-.55.56-.8a2.52,2.52,0,0,0,.29-.26.3.3,0,0,1,.2-.08.25.25,0,0,1,.18.1l.25.27a1.68,1.68,0,0,1,.54.8,11.59,11.59,0,0,1,.12,1.31,6.64,6.64,0,0,0,.25,1.7,3,3,0,0,0,.87,1.11l.34.33.39-.37a2.68,2.68,0,0,0,.92-1.16,12.7,12.7,0,0,0,.24-2.77c0-.39,0-.79,0-1.18a5.6,5.6,0,0,0,0-.58v-.41a.25.25,0,0,1,.09-.19.26.26,0,0,1,.19-.06l1.65.22a.24.24,0,0,1,.21.26c0,.56-.06,1.12-.09,1.67a32.31,32.31,0,0,1-.32,3.74A3.69,3.69,0,0,1,78.21,154.36Zm-2.57-7-.14.11c-.13.12-.36.31-.38.39l0,.56a16.08,16.08,0,0,0,.67,3.83,3.27,3.27,0,0,0,1.87,1.56,1.59,1.59,0,0,0,.5.08A3.19,3.19,0,0,0,81,151.43a31.09,31.09,0,0,0,.32-3.68c0-.48.05-1,.08-1.45l-1.13-.14v.11c0,.23,0,.42,0,.62,0,.38,0,.77,0,1.16a13.3,13.3,0,0,1-.25,2.88A3.12,3.12,0,0,1,79,152.34c-.19.17-.38.35-.55.53a.23.23,0,0,1-.18.09h0a.24.24,0,0,1-.18-.09c-.15-.17-.32-.33-.49-.5a3.41,3.41,0,0,1-1-1.31,7.09,7.09,0,0,1-.26-1.83,10.38,10.38,0,0,0-.13-1.25,1.42,1.42,0,0,0-.39-.54Z"/><path class="cls-3" d="M68.64,147.21l3.47-1.3.34.34c-.32.39-.56.9-1,1.14-2.09,1.21-3.24,2.84-2.71,5.38a7.26,7.26,0,0,1,0,1.48c-1.13.21-1.82.06-1.82-1.15s0-2.41,0-3.61-.07-2.3-.11-3.44c0-.23-.12-.51,0-.66a10.87,10.87,0,0,1,.88-1c.26.32.66.6.77,1A11,11,0,0,1,68.64,147.21Z"/><path class="cls-3" d="M68.07,154.58a1.29,1.29,0,0,1-1-.35,1.55,1.55,0,0,1-.36-1.13c0-1,0-2.15,0-3.61,0-.86,0-1.72-.08-2.58l0-.85,0-.2a.86.86,0,0,1,0-.61,6.3,6.3,0,0,1,.65-.8l.25-.27a.19.19,0,0,1,.19-.09.25.25,0,0,1,.19.09l.26.27a2,2,0,0,1,.56.78,6,6,0,0,1,.18,1.39c0,.08,0,.16,0,.23L72,145.67a.25.25,0,0,1,.26.06l.35.35a.25.25,0,0,1,0,.33l-.27.37a2.6,2.6,0,0,1-.76.82c-2.23,1.29-3.06,2.92-2.59,5.11a4.71,4.71,0,0,1,0,1.06c0,.16,0,.32,0,.48a.26.26,0,0,1-.21.25A4.8,4.8,0,0,1,68.07,154.58Zm-.41-9.87-.07.08a5.81,5.81,0,0,0-.6.73,1.49,1.49,0,0,0,0,.25,2.51,2.51,0,0,1,0,.27l0,.85c0,.87.06,1.73.08,2.59,0,1.46,0,2.57,0,3.62a1.11,1.11,0,0,0,.22.79c.18.18.53.23,1.1.15,0-.1,0-.2,0-.3a4,4,0,0,0,0-.92c-.51-2.41.42-4.25,2.83-5.65a2.09,2.09,0,0,0,.6-.67l.16-.23L72,146.2l-3.31,1.24a.25.25,0,0,1-.22,0,.28.28,0,0,1-.12-.19c0-.19,0-.38,0-.58a5.82,5.82,0,0,0-.16-1.28,1.51,1.51,0,0,0-.43-.56Z"/><path class="cls-3" d="M96.94,143.79a9.63,9.63,0,0,1-1.28.57,2.86,2.86,0,0,0-1.8,2.94,1.11,1.11,0,0,0,.8.68c.85,0,1.71-.25,2.57-.29.36,0,1,.21,1,.36,0,.4-.19,1.17-.37,1.18a22.06,22.06,0,0,1-4.52.11c-1-.12-1.43-2.8-.8-4.12a4.14,4.14,0,0,1,2.58-2.39C96.15,142.54,96.3,142.58,96.94,143.79Z"/><path class="cls-3" d="M94.84,149.67a11.74,11.74,0,0,1-1.5-.09,1.1,1.1,0,0,1-.83-.68,4.89,4.89,0,0,1-.17-3.78,4.36,4.36,0,0,1,2.74-2.53,3.17,3.17,0,0,1,.8-.16c.59,0,.87.47,1.28,1.24a.24.24,0,0,1,0,.2A.24.24,0,0,1,97,144l-.39.19a6.36,6.36,0,0,1-.92.39,2.59,2.59,0,0,0-1.63,2.63,1,1,0,0,0,.55.5,10.57,10.57,0,0,0,1.34-.15,12.17,12.17,0,0,1,1.23-.14h0c.27,0,1.27.15,1.29.59s-.15,1.41-.6,1.45l-.29,0C96.71,149.59,95.77,149.67,94.84,149.67Zm1-6.74a2.67,2.67,0,0,0-.66.14,3.87,3.87,0,0,0-2.43,2.26,4.44,4.44,0,0,0,.16,3.33c.14.26.3.41.45.43a21.91,21.91,0,0,0,4.18-.08l.22,0a2.15,2.15,0,0,0,.21-.86,2,2,0,0,0-.74-.19,11.46,11.46,0,0,0-1.21.14,10.71,10.71,0,0,1-1.4.15,1.36,1.36,0,0,1-1-.86,3.08,3.08,0,0,1,2-3.25,5.44,5.44,0,0,0,.84-.36l.16-.08C96.24,143,96.1,142.93,95.88,142.93Z"/><path class="cls-3" d="M151.38,150.25c-2.49-.26-3.86-1.61-4-4-.1-2.07,1.2-3.87,2.94-4,.61,0,1.54-.2,1.18,1-.09.27-.57.69-.71.63-1.53-.59-1.64.89-2,1.55-.59,1.12,1.1,3.26,2.35,3.08.76-.11,1.56-.38,1.62.63C152.82,149.49,151.88,149.88,151.38,150.25Z"/><path class="cls-3" d="M151.38,150.5h0c-2.62-.28-4.07-1.74-4.19-4.23-.11-2.22,1.32-4.12,3.18-4.23h.14l.4,0a1,1,0,0,1,.84.32,1.11,1.11,0,0,1,0,1c-.11.36-.72.91-1,.78a1.57,1.57,0,0,0-.55-.12c-.5,0-.69.42-.92,1.05a5.19,5.19,0,0,1-.2.5,1.56,1.56,0,0,0,.24,1.45,2.24,2.24,0,0,0,1.85,1.27l.25,0a4.07,4.07,0,0,1,.67-.08.9.9,0,0,1,1,1c0,.39-.45.67-1,1a6.14,6.14,0,0,0-.53.33A.23.23,0,0,1,151.38,150.5Zm-.5-8-.36,0h-.15c-1.59.09-2.8,1.76-2.71,3.71.1,2.21,1.33,3.47,3.65,3.74l.5-.31a2.61,2.61,0,0,0,.74-.53c0-.42-.18-.5-.48-.5a4.91,4.91,0,0,0-.59.07l-.26,0a2.73,2.73,0,0,1-2.35-1.5,2,2,0,0,1-.26-1.94,2.67,2.67,0,0,0,.18-.44c.21-.58.5-1.38,1.39-1.38a2,2,0,0,1,.68.14,1.24,1.24,0,0,0,.43-.45.78.78,0,0,0,0-.56C151.26,142.55,151.12,142.51,150.88,142.51Z"/><path class="cls-3" d="M34.3,153.21c-.23-2.11-.41-3.81-.64-5.89-1.08.89-1.87,1.6-2.73,2.21a4.39,4.39,0,0,1-1.29.46c.09-.49,0-1.14.27-1.42a36.74,36.74,0,0,1,2.88-2.41,1.88,1.88,0,0,0,.68-2,16.23,16.23,0,0,1,0-2.68c-1.28.66-2.23,1.22-3.24,1.63-.45.18-1.36.27-1.49,0-.46-.73.19-1.12.79-1.4,1-.46,1.94-1,3-1.32a1.27,1.27,0,0,0,.95-1.53c-.06-.59-.21-1.48.79-1.29.38.06.63.81.93,1.24l-.12.5c.76-.32,1.51-.67,2.28-1a2.83,2.83,0,0,1,1.24-.22.94.94,0,0,1,.34.84,2.39,2.39,0,0,1-.91.84,7,7,0,0,1-1.05.44c-2.2.94-2.43,1.45-1.79,4l1.4-.11c.21.75.26,1.31-.62,1.63s-.9.94-.8,1.75c.24,1.84.37,3.68.53,5.53a1.11,1.11,0,0,1-1.3,1.33,13.06,13.06,0,0,1-2.86-.73.89.89,0,0,1-.19-.82,1.15,1.15,0,0,1,.91-.31A17.42,17.42,0,0,1,34.3,153.21Z"/><path class="cls-3" d="M34.49,154.68h-.2a13.81,13.81,0,0,1-2.91-.74c-.15-.05-.27-.22-.35-.5s-.11-.54,0-.72a1.39,1.39,0,0,1,1.14-.39,9.45,9.45,0,0,1,1.35.38l.44.15c-.19-1.73-.35-3.2-.53-4.88l0-.16-.54.46c-.66.55-1.23,1-1.84,1.47a2.69,2.69,0,0,1-.95.37c-.14,0-.28.07-.41.12a.24.24,0,0,1-.24,0,.23.23,0,0,1-.08-.23c0-.15,0-.31,0-.47a1.62,1.62,0,0,1,.3-1.09A24.41,24.41,0,0,1,32,146.51l.68-.54a1.6,1.6,0,0,0,.59-1.78,8.07,8.07,0,0,1,0-1.66c0-.21,0-.42,0-.66l-.72.39c-.79.41-1.46.77-2.17,1.06a3.17,3.17,0,0,1-1.1.2c-.37,0-.6-.08-.71-.25a1,1,0,0,1-.15-.83c.13-.45.61-.72,1.06-.93l.7-.34a24.31,24.31,0,0,1,2.27-1,1,1,0,0,0,.78-1.26v-.09a1.61,1.61,0,0,1,.19-1.26.89.89,0,0,1,.91-.22c.37.07.6.49.82.9.09.16.18.32.27.45a.28.28,0,0,1,0,.2v0l.18-.08c.54-.24,1.09-.48,1.65-.69a3,3,0,0,1,1.37-.23c.15,0,.28.14.4.38,0,.09.27.54.13.81a2.67,2.67,0,0,1-1,.94,3,3,0,0,1-.73.32l-.36.14c-2,.87-2.25,1.26-1.7,3.52l1.19-.1a.24.24,0,0,1,.26.18c.21.73.33,1.53-.78,1.93-.57.21-.74.6-.63,1.49.2,1.52.32,3.07.44,4.57l.09,1a1.53,1.53,0,0,1-.35,1.2A1.36,1.36,0,0,1,34.49,154.68Zm-2.91-1.21a13.49,13.49,0,0,0,2.76.71,1,1,0,0,0,.81-.25,1.06,1.06,0,0,0,.22-.82l-.08-1c-.13-1.5-.25-3-.44-4.54-.1-.8-.07-1.66.95-2,.6-.21.68-.49.52-1.13l-1.19.1a.28.28,0,0,1-.27-.19c-.66-2.66-.37-3.31,1.94-4.3l.39-.15a3.32,3.32,0,0,0,.63-.27,2.4,2.4,0,0,0,.82-.75,1,1,0,0,0-.2-.47,2.57,2.57,0,0,0-1.08.21c-.54.2-1.09.44-1.62.67l-.64.28a.25.25,0,0,1-.26,0,.26.26,0,0,1-.08-.25l.09-.4-.23-.4c-.13-.25-.33-.62-.47-.65s-.43,0-.45.06-.1.58-.06.88v.09a1.5,1.5,0,0,1-1.12,1.78c-.75.28-1.49.63-2.21,1l-.71.34c-.33.16-.72.37-.79.62a.51.51,0,0,0,.1.42s.08,0,.28,0a2.84,2.84,0,0,0,.91-.16,23,23,0,0,0,2.12-1.05l1.1-.57a.25.25,0,0,1,.24,0,.25.25,0,0,1,.12.22c0,.4,0,.76,0,1.09a7.57,7.57,0,0,0,0,1.54,2.13,2.13,0,0,1-.76,2.27l-.69.54a25.41,25.41,0,0,0-2.17,1.84,1.46,1.46,0,0,0-.15.77.61.61,0,0,0,0,.14l.07,0a2.46,2.46,0,0,0,.79-.3c.59-.42,1.15-.9,1.81-1.44l.9-.76a.27.27,0,0,1,.26,0,.27.27,0,0,1,.15.21l.07.61c.19,1.81.36,3.37.57,5.27a.26.26,0,0,1-.09.22.26.26,0,0,1-.24,0l-.81-.27a7.61,7.61,0,0,0-1.27-.37.85.85,0,0,0-.68.23A1.49,1.49,0,0,0,31.58,153.47Z"/><path class="cls-3" d="M49.82,149.93c.25,2.79-1.84,4-4.44,3.26-.3-.08-.72-.37-.77-.62a35.49,35.49,0,0,1-.54-3.86c-.07-.74.32-1.17,1.14-1.12a2.06,2.06,0,0,0,.86-.1C48.74,146.35,49.82,147,49.82,149.93Zm-1.21,0c-.34-.51-.58-1.28-1-1.47-.7-.29-2.14.83-2,1.44s-.37,2,1,2.1C47.64,152.13,48.27,151.36,48.61,150Z"/><path class="cls-3" d="M46.8,153.65a5.38,5.38,0,0,1-1.49-.22c-.34-.09-.87-.42-1-.81-.24-1.29-.43-2.6-.54-3.88a1.35,1.35,0,0,1,.28-1,1.38,1.38,0,0,1,1.12-.36,1.69,1.69,0,0,0,.75-.08,5.68,5.68,0,0,1,2.1-.54c1.79,0,2,1.83,2,3.21a3.49,3.49,0,0,1-.77,2.74A3.28,3.28,0,0,1,46.8,153.65Zm-1.72-5.82a.79.79,0,0,0-.61.21.86.86,0,0,0-.15.65c.11,1.27.29,2.56.53,3.84a1.07,1.07,0,0,0,.6.42,3.4,3.4,0,0,0,3.48-.62,3,3,0,0,0,.64-2.38c0-2.41-.76-2.73-1.5-2.73a5,5,0,0,0-1.9.5,2.28,2.28,0,0,1-1,.12Zm1.68,4.45h-.21c-1.18-.11-1.16-1-1.15-1.62a2.27,2.27,0,0,0,0-.66,1,1,0,0,1,.23-.83c.44-.58,1.46-1.17,2.07-.91a2.07,2.07,0,0,1,.87,1.06,4.68,4.68,0,0,0,.28.5.24.24,0,0,1,0,.2C48.49,151.52,47.79,152.28,46.76,152.28Zm.55-3.6a2.08,2.08,0,0,0-1.32.78c-.14.19-.17.33-.15.39a2.43,2.43,0,0,1,.06.81c0,.69,0,1.05.7,1.12s1.41-.5,1.74-1.78c-.09-.15-.17-.3-.25-.46-.19-.36-.38-.73-.62-.83A.41.41,0,0,0,47.31,148.68Z"/><path class="cls-3" d="M45.22,135.49c-.84,1.61-1.58,3.11-2.41,4.56-.21.37-.69.6-1.05.9-.1-.48-.41-1-.25-1.42a38.68,38.68,0,0,1,2.46-4.9,2,2,0,0,1,1.85-.42,30.87,30.87,0,0,1,3.59,2s.11-.19.13-.18a3.28,3.28,0,0,1,1.28.51c.21.21.06.75.08,1.15a3.42,3.42,0,0,1-1.28,0C48.19,137,46.81,136.29,45.22,135.49Z"/><path class="cls-3" d="M41.76,141.2h-.08a.22.22,0,0,1-.16-.19,4.29,4.29,0,0,0-.13-.44,1.62,1.62,0,0,1-.11-1.13,38.55,38.55,0,0,1,2.48-4.93,2.17,2.17,0,0,1,2.16-.52,18.36,18.36,0,0,1,2.55,1.37l.87.53a.27.27,0,0,1,.28-.09l.36.11a2,2,0,0,1,1,.46,1.21,1.21,0,0,1,.16.95,2.35,2.35,0,0,0,0,.37.32.32,0,0,1-.07.19.31.31,0,0,1-.18.07l-.4,0a2.18,2.18,0,0,1-1-.07c-1.05-.48-2.07-1-3.16-1.55-.34-.17-.68-.35-1-.52l-.55,1.07c-.59,1.14-1.14,2.21-1.74,3.27a2.41,2.41,0,0,1-.77.72l-.34.25A.25.25,0,0,1,41.76,141.2Zm3.59-6.82a1.71,1.71,0,0,0-1.17.38,38.85,38.85,0,0,0-2.44,4.87,1.37,1.37,0,0,0,.13.77.5.5,0,0,0,0,.13l.07-.05a2.09,2.09,0,0,0,.61-.56c.6-1,1.15-2.12,1.73-3.25l.67-1.29a.25.25,0,0,1,.34-.11l1.26.63c1.08.55,2.1,1.07,3.13,1.54a1.69,1.69,0,0,0,.73,0l.2,0c0-.06,0-.12,0-.18a1.38,1.38,0,0,0,0-.56,1.75,1.75,0,0,0-.79-.33l-.21-.06a.29.29,0,0,1-.35.11l-1.08-.65a17.49,17.49,0,0,0-2.48-1.34A1,1,0,0,0,45.35,134.38Z"/><path class="cls-3" d="M43.7,143.58a11.52,11.52,0,0,1,1.16-.7,23,23,0,0,1,3-1.14c.46-.12,1.28-.05,1.5.25.48.68-.22,1-.76,1.22A34.85,34.85,0,0,1,45,144.39c-.35.1-.82-.22-1.23-.34C43.75,143.89,43.72,143.74,43.7,143.58Z"/><path class="cls-3" d="M44.87,144.66a2,2,0,0,1-.79-.23,2.92,2.92,0,0,0-.38-.14.25.25,0,0,1-.17-.2l-.08-.47a.25.25,0,0,1,.12-.25l.37-.24a6.07,6.07,0,0,1,.82-.48l.37-.16a21.53,21.53,0,0,1,2.65-1,2.49,2.49,0,0,1,.57-.06c.22,0,.93,0,1.2.41a.9.9,0,0,1,.18.78c-.14.43-.64.66-1.06.82a36.07,36.07,0,0,1-3.6,1.19Zm-.87-.8.28.11a1.32,1.32,0,0,0,.67.18A35,35,0,0,0,48.5,143c.45-.17.7-.33.75-.5a.39.39,0,0,0-.11-.34,1.12,1.12,0,0,0-.79-.2,1.48,1.48,0,0,0-.44.05,18.75,18.75,0,0,0-2.59,1l-.36.16a5.4,5.4,0,0,0-.75.44l-.24.15Z"/><path class="cls-3" d="M156.88,144.45c.11.19-.1.51-.47.72s-.75.23-.85.05.1-.5.47-.71S156.78,144.27,156.88,144.45Z"/><path class="cls-3" d="M155.85,145.59a.48.48,0,0,1-.55-.62,1.23,1.23,0,0,1,.61-.68c.48-.28,1-.27,1.19,0a.49.49,0,0,1,0,.38,1.31,1.31,0,0,1-.6.68A1.49,1.49,0,0,1,155.85,145.59Zm0-.5a1.23,1.23,0,0,0,.49-.14.81.81,0,0,0,.37-.37h-.06a.9.9,0,0,0-.44.14.8.8,0,0,0-.38.37Z"/><path class="cls-5" d="M43.17,79c1-.31,1.83.41,2.81.59l6.2,1.15c1.36.27,2.7.57,4.06.83s2.59.43,3.88.71c1,.22,2.06.57,3.1.81a5.92,5.92,0,0,0,1.71.23c1.17,0,2.23.64,3.42.42.72-.13,1.16.49,1,1.25-.07.39.07.8-.4,1.08a1,1,0,0,1-1.14.06,12.48,12.48,0,0,0-1.73-.71c-.6.86-1.34-.07-2.08,0,0,0,0-.15,0-.22-1-.14-2-.24-3-.44a11.78,11.78,0,0,1-2.17-.65,11.89,11.89,0,0,0-4-.87c-.62,0-1.24-.24-1.87-.32s-1.56-.07-2.33-.18c-1.16-.17-2.3-.42-3.45-.63l-2.68-.52c-.5-.1-1-.19-1.52-.31a.85.85,0,0,1-.47-1.15Z"/><path class="cls-5" d="M68.37,87.17a1.92,1.92,0,0,1-1-.28,6.27,6.27,0,0,0-1-.43l0,0a2,2,0,0,1-1.85,0,1.6,1.6,0,0,0-.4-.14h-.93v-.32l-.11,0c-.69-.09-1.41-.18-2.12-.32a13.81,13.81,0,0,1-2.33-.71,11.27,11.27,0,0,0-3.73-.8,6.49,6.49,0,0,1-1.22-.19c-.24,0-.48-.1-.72-.13s-.66-.06-1-.08a12.44,12.44,0,0,1-1.37-.11c-.85-.13-1.7-.29-2.55-.46l-4-.78c-.39-.07-.77-.14-1.15-.23a1.65,1.65,0,0,1-1.08-.94,1.73,1.73,0,0,1,0-1.51l.39-.72.4-.7.33-.11a3.46,3.46,0,0,1,2.42.29,4,4,0,0,0,.83.27l2.27.42,3.94.74c.69.13,1.37.28,2,.42l2,.41L58,81c.78.13,1.54.27,2.31.43.59.13,1.17.29,1.75.45s.91.26,1.37.37a6.43,6.43,0,0,0,1.46.21,5.87,5.87,0,0,1,1.79.25,3.74,3.74,0,0,0,1.51.18,1.7,1.7,0,0,1,1.55.45,2.06,2.06,0,0,1,.54,1.82c0,.06,0,.12,0,.18a1.69,1.69,0,0,1-.8,1.53A2.1,2.1,0,0,1,68.37,87.17Zm-2.61-2.83.69.22.54.2a9.21,9.21,0,0,1,1.31.56l.08,0,.08,0v-.1c0-.13,0-.26,0-.4a.46.46,0,0,0,0-.25,4.62,4.62,0,0,1-2.24-.16A4.67,4.67,0,0,0,65,84.2,6.84,6.84,0,0,1,63,84c-.48-.11-1-.25-1.44-.38s-1.09-.31-1.64-.43-1.29-.25-1.94-.36c.43.12.85.27,1.27.43a10.77,10.77,0,0,0,2,.61c.64.13,1.3.22,2,.31l.92.12.84.12,0,.29.19.08.23.09Zm-22.35-4,.89.17,4,.79c.82.16,1.65.32,2.47.44.4.06.8.08,1.2.1s.74,0,1.11.08.59.1.89.16a4.65,4.65,0,0,0,.91.15l.53,0L54,82l-2-.41-3.92-.73-2.28-.43a5.85,5.85,0,0,1-1.16-.37,3.59,3.59,0,0,0-.91-.28v0Z"/><path class="cls-5" d="M152.62,80.58a2.72,2.72,0,0,1-2.79,1.33,7.12,7.12,0,0,0-2.52.6c-.76.21-1.5.48-2.25.73s-1.58.56-2.36.86c-1,.4-2,.88-3,1.24-1.45.51-2.94.93-4.41,1.42-.65.21-1.28.51-1.93.75-1.29.48-2.59,1-3.89,1.42-.85.31-1.73.56-2.57.9-1.15.48-2.27,1-3.41,1.51a1.66,1.66,0,0,1-.8.06c-.46-.06-.72-.28-.54-.81s.39-1.17,1.31-1.26a10.52,10.52,0,0,0,2.44-1c1-.38,2-.77,3-1.11,1.47-.5,3-.94,4.44-1.43.52-.18.9-.61,1.53-.68a10.05,10.05,0,0,0,2.44-.67c1-.36,1.92-.81,2.89-1.22.32-.13.65-.22,1-.36,1-.41,2-.84,2.94-1.25a3.82,3.82,0,0,1,.7-.23,4.65,4.65,0,0,0,1.79-.61,4.38,4.38,0,0,1,2-.68,4.39,4.39,0,0,0,2.14-1,1.16,1.16,0,0,1,1.35.5C152.28,80,152.43,80.23,152.62,80.58Z"/><path class="cls-5" d="M123,92.32l-.44,0a1.54,1.54,0,0,1-1.18-.68,1.5,1.5,0,0,1-.09-1.32,2.3,2.3,0,0,1,2.06-1.86,4.4,4.4,0,0,0,1.34-.49c.29-.14.58-.28.88-.39,1.08-.42,2.05-.8,3.06-1.14q1.13-.37,2.25-.72c.73-.23,1.46-.46,2.19-.71a2.67,2.67,0,0,0,.41-.21,3,3,0,0,1,1.32-.5,9.34,9.34,0,0,0,2.22-.63c.62-.22,1.22-.49,1.83-.76l1-.44.54-.2.44-.16,1.54-.65,1.39-.6a4.13,4.13,0,0,1,.87-.28l.14,0a3.33,3.33,0,0,0,1.32-.45,5.33,5.33,0,0,1,2.46-.83,3.51,3.51,0,0,0,1.72-.79,1.61,1.61,0,0,1,1.27-.19,2.19,2.19,0,0,1,1.37,1l.75,1.36-.31.46a3.63,3.63,0,0,1-3.63,1.73,3.86,3.86,0,0,0-1.46.33l-.73.23c-.7.2-1.4.45-2.1.69l-.09,0c-.78.27-1.56.55-2.33.85l-1.17.49c-.6.26-1.23.53-1.87.76-.85.3-1.71.57-2.58.84l-1.84.58c-.37.12-.73.27-1.09.42l-.82.33c-1.29.48-2.59,1-3.9,1.42l-1,.34c-.51.17-1,.34-1.53.55s-1.2.52-1.8.79l-1.6.71A2.12,2.12,0,0,1,123,92.32Zm.93-2.16a2.63,2.63,0,0,1-.39.06c-.24,0-.31,0-.41.29h0ZM145,82.32a2.52,2.52,0,0,0-.51.17l0,0,.33-.12.09,0Zm6.18-2.3a5,5,0,0,1-2.44,1,3.49,3.49,0,0,0-1.61.53l-.17.11.11,0,.63-.21a5.31,5.31,0,0,1,2.23-.41,1.79,1.79,0,0,0,1.63-.53l-.21-.37A.5.5,0,0,0,151.17,80Z"/><path class="cls-5" d="M110,29.16a5.62,5.62,0,0,0-.42.9,11.72,11.72,0,0,0-.39,1.55c-.17.94-.3,1.88-.43,2.82-.22,1.62-.46,3.24-.62,4.87-.13,1.32-.13,2.66-.21,4,0,.74-.12,1.48-.18,2.22-.11,1.61-.21,3.22-.33,4.82-.07.81-.2,1.61-.27,2.41a7.25,7.25,0,0,0,0,1,2.12,2.12,0,0,1-.55,2.06c-.25.21-.5.5-.76.3a1.4,1.4,0,0,1-.57-.94c0-.68.25-1.36.32-2,.12-1,.19-2.09.28-3.13.15-1.71.32-3.42.45-5.14.11-1.4.17-2.81.28-4.22.06-.81.18-1.61.26-2.41l.27-2.62c0-.23.07-.45.11-.68.32-1.65.65-3.3,1-4.95.06-.34,0-.7,0-1.05s.18-.95.82-1S109.88,28.09,110,29.16Z"/><path class="cls-5" d="M106.08,57.11a1.15,1.15,0,0,1-.72-.27,2.22,2.22,0,0,1-.91-1.66,7.31,7.31,0,0,1,.19-1.36,6.75,6.75,0,0,0,.14-.76c.08-.69.13-1.38.19-2.07l.23-2.69q.17-1.74.3-3.48c.06-.71.1-1.42.14-2.13s.09-1.4.14-2.09.11-1.07.17-1.61c0-.27.07-.55.1-.83l.27-2.62q0-.37.12-.75l.3-1.54c.22-1.14.44-2.27.65-3.41a1.9,1.9,0,0,0,0-.34,3.75,3.75,0,0,1,0-.67c.16-1.11.72-1.71,1.67-1.75,1.57-.08,1.71,1.05,1.84,2l0,.27-.11.24-.15.3a3,3,0,0,0-.23.48,11.32,11.32,0,0,0-.35,1.43c-.17.93-.3,1.86-.43,2.8l-.16,1.19c-.17,1.19-.34,2.42-.45,3.63-.08.81-.11,1.65-.14,2.47,0,.5,0,1-.07,1.49s-.06.87-.1,1.31-.06.62-.08.93l-.13,1.84c-.06,1-.13,2-.21,3,0,.43-.08.85-.13,1.28s-.1.76-.13,1.14a4.73,4.73,0,0,0,0,.73v.15a2.94,2.94,0,0,1-.86,2.83l-.09.08A1.73,1.73,0,0,1,106.08,57.11Zm.38-1.69h0Zm-.09-1.05a4.79,4.79,0,0,0-.11.6A1,1,0,0,0,106.37,54.37Z"/><path class="cls-5" d="M143.14,66.16a5.43,5.43,0,0,0-1,.35c-.57.31-1.1.71-1.66,1a8.27,8.27,0,0,1-1.59.76c-1.18.35-1.9,1.38-2.92,1.94-.42.23-.87.39-1.28.63-.56.32-1.07.71-1.62,1-.32.2-.67.35-1,.53l-2.39,1.36c-.43.24-.87.46-1.3.69a.76.76,0,0,0-.25.18c-.95,1.31-2.44,1.75-3.82,2.37-.24.12-.49.22-.72.35-.55.31-1,.22-1.26-.27s-.15-1.18.44-1.38a25.73,25.73,0,0,0,5.31-2.69c.4-.24.85-.42,1.24-.68.7-.45,1.36-1,2-1.43a4.53,4.53,0,0,1,1.91-.88,2.85,2.85,0,0,0,1.59-1A5,5,0,0,1,136.61,68a21.41,21.41,0,0,0,3.59-2.26,9.88,9.88,0,0,1,1.86-1,1.47,1.47,0,0,0,.52-.47,1,1,0,0,1,1.27-.41.6.6,0,0,1,.39.85,8.52,8.52,0,0,1-.52,1.24c-.08.17-.31.26-.47.38Z"/><path class="cls-5" d="M123,78.47a1.61,1.61,0,0,1-.47-.07,1.64,1.64,0,0,1-1-.87,2,2,0,0,1-.13-1.67,1.71,1.71,0,0,1,1.09-1,24.11,24.11,0,0,0,5-2.52l.14-.09c.2-.12.41-.23.62-.33a4.91,4.91,0,0,0,.59-.33c.34-.22.67-.46,1-.7s.69-.49,1-.73a5.51,5.51,0,0,1,2.27-1,1.92,1.92,0,0,0,1-.66,4.22,4.22,0,0,1,1.57-1.12l.43-.22.62-.35A16.18,16.18,0,0,0,139.61,65a5.65,5.65,0,0,1,1.4-.79c.21-.09.42-.17.62-.28a.64.64,0,0,0,.18-.14,1.94,1.94,0,0,1,2.33-.8,1.5,1.5,0,0,1,1,2,9.34,9.34,0,0,1-.57,1.37,1.67,1.67,0,0,1-.63.62l-.1.06-.78.6-.26-.42-.15.07c-.28.15-.54.32-.8.49s-.57.37-.86.54a9.52,9.52,0,0,1-1.77.83,4.43,4.43,0,0,0-1.46.93,7.92,7.92,0,0,1-1.29.94c-.21.12-.44.22-.66.32a5.55,5.55,0,0,0-.6.29c-.29.17-.56.36-.84.55s-.5.34-.75.49a7.3,7.3,0,0,1-.67.36l-.38.2-2.39,1.35-.75.4-.55.3,0,0a7.74,7.74,0,0,1-3.38,2.25l-.72.31-.16.07a4.66,4.66,0,0,0-.5.25A2.08,2.08,0,0,1,123,78.47Zm.08-1.88,0,0,0,0,.22-.11Zm5.79-1.4h0ZM143.19,65a2,2,0,0,1-.41.37l.07,0,.22-.07Z"/><path class="cls-5" d="M74.83,57.71c-.23-.63-.44-1.27-.69-1.89-.44-1.13-.91-2.26-1.36-3.38-.15-.38-.31-.76-.45-1.14-.5-1.31-1-2.62-1.5-3.92q-.9-2.28-1.84-4.55c-.52-1.26-1.08-2.5-1.64-3.73-.39-.82-.81-1.62-1.23-2.43-.25-.49.27-1.63.82-1.64a.89.89,0,0,1,.64.48c.88,2,1.72,4.1,2.57,6.16.73,1.75,1.47,3.49,2.16,5.25.52,1.32,1,2.67,1.44,4a13.57,13.57,0,0,0,.56,1.31c.43.82.85,1.64,1.33,2.43a1.83,1.83,0,0,1,0,2.16C75.24,57.4,75,57.66,74.83,57.71Z"/><path class="cls-5" d="M74.27,58.79l-.49-1.34c-.15-.44-.31-.87-.48-1.3-.3-.77-.61-1.53-.91-2.29l-.45-1.09c-.15-.38-.31-.76-.45-1.15L71,50.25c-.32-.85-.65-1.7-1-2.54q-.88-2.28-1.83-4.54c-.48-1.15-1-2.35-1.63-3.69-.38-.82-.82-1.66-1.2-2.39a2.19,2.19,0,0,1,.2-2,1.73,1.73,0,0,1,1.4-.93h0a1.8,1.8,0,0,1,1.47,1c.71,1.65,1.39,3.31,2.08,5l1.12,2.69c.52,1.26,1,2.52,1.54,3.79.32.81.61,1.64.9,2.47l.54,1.54a10.3,10.3,0,0,0,.53,1.2l0,.09c.4.77.81,1.56,1.25,2.3a2.71,2.71,0,0,1,0,3.13c-.49.73-.83,1.12-1.3,1.25ZM74.76,55c.08.18.15.36.22.54s.07.19.11.28a1.19,1.19,0,0,0-.22-.64Zm-8-19.08h0Z"/><path class="cls-5" d="M125.58,46.89c.42.94-.16,1.47-.71,2.07a20.53,20.53,0,0,0-3.51,5.41,9.74,9.74,0,0,1-.9,1.48,7.31,7.31,0,0,0-1.24,3c-.09.52-.35.61-.77.58-.67,0-1-.33-1-.79a2.56,2.56,0,0,1,.26-.81c.34-.7.71-1.39,1.06-2.09.11-.2.18-.41.29-.6.52-.93,1-1.87,1.59-2.79s1.16-1.94,1.73-2.91,1.2-2.09,1.84-3.11c.18-.3.47-.73.88-.45s.45.62.67,1Z"/><path class="cls-5" d="M118.57,60.31h-.18a2,2,0,0,1-1.49-.65,1.53,1.53,0,0,1-.32-1.14,3.36,3.36,0,0,1,.36-1.1c.21-.44.44-.89.67-1.34l.39-.75.1-.22a3.29,3.29,0,0,1,.21-.42c.52-.94,1-1.88,1.59-2.8l1-1.71,1.34-2.26c.4-.69.81-1.39,1.23-2.07a1.81,1.81,0,0,1,1.12-.94,1.29,1.29,0,0,1,1,.21,2.49,2.49,0,0,1,.77,1c0,.08.09.17.15.25l.64,1-.57.2a2.93,2.93,0,0,1-1,2l-.11.13a19.44,19.44,0,0,0-3.36,5.17,10,10,0,0,1-1,1.62A6.49,6.49,0,0,0,120.11,59,1.46,1.46,0,0,1,118.57,60.31Zm6.17-13.08c-.31.52-.62,1-.92,1.57.12-.15.25-.3.38-.44l.13-.14c.56-.61.55-.69.43-1Z"/><path class="cls-5" d="M87.14,43.58c.31-.28.59-.58.92-.83.53-.4.76,0,.9.42a3.18,3.18,0,0,1,.16,1c.11,1.65.23,3.29.31,4.93.06,1.12,0,2.24.12,3.34a4.12,4.12,0,0,0,.54,1.76A1.93,1.93,0,0,1,89.67,57c-.09.07-.51-.09-.56-.22-.21-.53-.62-.92-.58-1.63a16.57,16.57,0,0,0-.45-2.64c-.08-.73,0-1.48,0-2.22q-.21-2.88-.5-5.76a2.76,2.76,0,0,0-.31-.79Z"/><path class="cls-5" d="M89.6,57.87a1.27,1.27,0,0,1-.41-.06,1.39,1.39,0,0,1-.92-.74,2.42,2.42,0,0,0-.18-.36,2.89,2.89,0,0,1-.46-1.65,4.67,4.67,0,0,0-.21-1.3,10.61,10.61,0,0,1-.24-1.2,8.21,8.21,0,0,1,0-1.31,7.22,7.22,0,0,0,0-.93c-.14-2-.33-4-.49-5.74a2.17,2.17,0,0,0-.11-.23.61.61,0,0,1,0-.12l-.7-.65,1-.92a7.22,7.22,0,0,1,.72-.63,1.41,1.41,0,0,1,1.28-.29,1.68,1.68,0,0,1,1,1.12,4.46,4.46,0,0,1,.21,1.2l0,.61c.1,1.46.2,2.91.27,4.36,0,.46,0,.93,0,1.4,0,.66,0,1.28.08,1.9a3.17,3.17,0,0,0,.4,1.36,2.82,2.82,0,0,1-.65,4A1,1,0,0,1,89.6,57.87Zm-.45-1.64Zm.28-1.4v.33a.85.85,0,0,0,.14.5A1.22,1.22,0,0,0,89.43,54.83Z"/><path class="cls-5" d="M65.28,69.46c-.09.66-.62.78-1,.94-.13.06-.41-.21-.61-.35s-.66-.46-1-.71a34.65,34.65,0,0,0-4.53-2.53,6.82,6.82,0,0,0-2.36-.67,1.15,1.15,0,0,1-1-1,1.47,1.47,0,0,1,.4-1.14c.58-.62.61-.53,1.4,0a24.94,24.94,0,0,0,2.33,1.27c1.15.58,2.32,1.13,3.48,1.71a16,16,0,0,1,2.32,1.23C65,68.44,65.09,69,65.28,69.46Z"/><path class="cls-5" d="M64.23,71.31a1.62,1.62,0,0,1-1-.43l-.12-.09c-.35-.24-.69-.48-1-.73a17.75,17.75,0,0,0-3-1.71c-.49-.24-1-.49-1.45-.75a6,6,0,0,0-2-.57,2,2,0,0,1-1.8-1.71,2.38,2.38,0,0,1,.62-1.94c.92-1,1.48-.86,2.41-.24l.15.1A17.21,17.21,0,0,0,59,64.31l.28.15,2,1,1.5.73.56.27a10.93,10.93,0,0,1,1.88,1A2.26,2.26,0,0,1,66,68.76a2.69,2.69,0,0,0,.12.34l.1.24,0,.25a2,2,0,0,1-1.42,1.59l-.13,0A.94.94,0,0,1,64.23,71.31ZM64,69.56h0Zm-2.19-1.89a14.79,14.79,0,0,1,1.47,1c.3.23.62.46.94.68l.13.09a.3.3,0,0,1,0-.1,2.28,2.28,0,0,0-.15-.41,11,11,0,0,0-1.55-.83L62,67.77Zm-5.92-3.08,0,0a.78.78,0,0,0-.16.38c.05.23.11.24.25.25a9.08,9.08,0,0,1,1.64.35,14.37,14.37,0,0,1-1.47-.85l-.16-.1Z"/><path class="cls-2" d="M155,145.94a1.42,1.42,0,0,1,.58-1.57c.9-.71,1.36.12,1.32.34S155.46,146.12,155,145.94Z"/><path class="cls-2" d="M155,145.94a1.42,1.42,0,0,1,.58-1.57c.9-.71,1.36.12,1.32.34S155.46,146.12,155,145.94Z"/></g></g></svg>