<?xml version="1.0" encoding="utf-8"?>
<!-- Generator: Adobe Illustrator 17.0.0, SVG Export Plug-In . SVG Version: 6.00 Build 0)  -->
<!DOCTYPE svg PUBLIC "-//W3C//DTD SVG 1.1//EN" "http://www.w3.org/Graphics/SVG/1.1/DTD/svg11.dtd">
<svg version="1.1" id="圖層_1" xmlns="http://www.w3.org/2000/svg" xmlns:xlink="http://www.w3.org/1999/xlink" x="0px" y="0px"
	 width="184.252px" height="198.425px" viewBox="0 0 184.252 198.425" enable-background="new 0 0 184.252 198.425"
	 xml:space="preserve">
<g>
	<g>
		<g>
			<g>
				<defs>
					<rect id="SVGID_1_" x="35.433" y="1.771" width="113.387" height="170.079"/>
				</defs>
				<clipPath id="SVGID_2_">
					<use xlink:href="#SVGID_1_"  overflow="visible"/>
				</clipPath>
				<g clip-path="url(#SVGID_2_)">
					<path fill="#FFFFFF" d="M148.819,75.636H106.3v-5.998h42.52v5.998H148.819z M77.952,41.29h-42.52v6h42.52V41.29z"/>
					<path fill="#FFFFFF" d="M134.646,87.175c-32.915,0-59.693,26.777-59.693,59.691s26.778,59.693,59.693,59.693
						s59.693-26.779,59.693-59.693C194.339,113.952,167.561,87.175,134.646,87.175z M134.646,200.56
						c-29.606,0-53.693-24.086-53.693-53.693c0-29.606,24.087-53.691,53.693-53.691s53.693,24.086,53.693,53.691
						C188.339,176.474,164.252,200.56,134.646,200.56z M41.432,144.018V5.135c0-1.657-1.343-3-3-3s-3,1.343-3,3v138.883
						c-15.881,1.516-28.346,14.923-28.346,31.196c0,17.283,14.061,31.346,31.346,31.346s31.347-14.063,31.347-31.346
						C69.779,158.942,57.313,145.535,41.432,144.018z M38.432,200.56c-13.976,0-25.346-11.369-25.346-25.346
						s11.37-25.348,25.346-25.348c13.977,0,25.347,11.371,25.347,25.348C63.779,189.191,52.409,200.56,38.432,200.56z"/>
					<g>
						<path fill="#FFFFFF" d="M147.554,29.711c-0.754-0.543-1.718-0.708-2.609-0.44l-14.157,4.211l4.22-14.185
							c0.313-1.056,0.023-2.198-0.755-2.978c-0.78-0.778-1.923-1.065-2.977-0.753L117.1,19.787l4.217-14.142
							c0.266-0.892,0.103-1.855-0.44-2.61s-1.405-1.215-2.335-1.245c-8.788-0.3-17.026,2.952-23.208,9.134
							c-5.921,5.921-9.182,13.792-9.182,22.165c0,7.365,2.527,14.339,7.164,19.941l-48.819,48.82l-9.06,9.06v8.484l13.302-13.302
							l48.823-48.824c5.768,4.763,12.849,7.152,19.937,7.152c8.026,0,16.055-3.055,22.165-9.166
							c6.183-6.181,9.427-14.423,9.135-23.208C148.768,31.117,148.308,30.255,147.554,29.711z M135.421,51.011
							c-4.788,4.787-11.152,7.424-17.923,7.424c-6.771,0-13.135-2.637-17.923-7.424c-4.787-4.787-7.424-11.152-7.424-17.923
							c0-6.77,2.637-13.135,7.424-17.923c4.051-4.051,9.198-6.54,14.791-7.21l-4.602,15.432c-0.314,1.056-0.025,2.199,0.753,2.978
							c0.78,0.78,1.925,1.066,2.978,0.754l14.179-4.222l-4.219,14.183c-0.313,1.056-0.024,2.198,0.755,2.976
							c0.778,0.78,1.923,1.069,2.977,0.754l15.445-4.594C141.962,41.811,139.473,46.96,135.421,51.011z"/>
					</g>
				</g>
			</g>
		</g>
	</g>
	<g>
		<path fill="#FFFFFF" d="M12.41,190.246c-0.65,0.202-1.33,0.402-1.98,0.588v4.301c0,0.65-0.155,0.959-0.557,1.129
			c-0.372,0.186-0.99,0.217-1.997,0.217c-0.03-0.294-0.2-0.757-0.34-1.067c0.665,0.031,1.315,0.015,1.485,0.015
			c0.202,0,0.278-0.077,0.278-0.294v-3.961l-1.887,0.542l-0.325-1.114c0.619-0.155,1.377-0.357,2.212-0.588v-3.357H7.272v-1.083
			h2.027v-3.094h1.13v3.094h1.749v1.083H10.43v3.064c0.603-0.186,1.222-0.357,1.826-0.542L12.41,190.246z M17.268,182.804
			c-0.062,0.139-0.123,0.294-0.185,0.449c0.944,1.841,2.599,3.683,4.193,4.595c-0.263,0.202-0.635,0.65-0.835,0.945
			c-0.465-0.325-0.944-0.712-1.393-1.16v0.927h-5.075v-0.757c-0.433,0.417-0.897,0.804-1.392,1.16
			c-0.185-0.248-0.557-0.65-0.835-0.835c2.027-1.347,3.651-3.482,4.425-5.633L17.268,182.804z M13.23,190.308h6.467v6.298h-1.144
			v-0.79h-4.209v0.837H13.23V190.308z M18.923,187.507c-0.882-0.882-1.717-2.011-2.351-3.156c-0.603,1.145-1.378,2.227-2.29,3.156
			H18.923z M14.344,191.345v3.434h4.209v-3.434H14.344z"/>
		<path fill="#FFFFFF" d="M29.376,189.567c0,0.572-0.449,1.02-1.02,1.02c-0.573,0-1.022-0.449-1.022-1.02
			c0-0.573,0.449-1.022,1.022-1.022C28.927,188.545,29.376,188.993,29.376,189.567z"/>
		<g>
			<path fill="#FFFFFF" d="M35.433,182.74h3.826c2.616,0,4.424,0.932,4.424,3.338c0,1.362-0.685,2.556-1.895,2.966v0.093
				c1.545,0.317,2.633,1.398,2.633,3.265c0,2.685-2.001,4.009-4.88,4.009h-4.108V182.74z M38.979,188.559
				c2.211,0,3.107-0.878,3.107-2.256c0-1.605-1.036-2.202-3.037-2.202h-1.984v4.458H38.979z M39.312,195.029
				c2.213,0,3.512-0.838,3.512-2.685c0-1.698-1.265-2.461-3.512-2.461h-2.247v5.146H39.312z"/>
			<path fill="#FFFFFF" d="M54.046,196.41l-3.125-5.799h-2.317v5.799h-1.632v-13.669h4.038c2.616,0,4.495,0.989,4.495,3.842
				c0,2.126-1.159,3.394-2.914,3.842l3.3,5.986L54.046,196.41L54.046,196.41z M48.604,189.211h2.16c2.019,0,3.125-0.856,3.125-2.628
				c0-1.808-1.106-2.443-3.125-2.443h-2.16V189.211z"/>
			<path fill="#FFFFFF" d="M58.072,190.759v-8.019h1.632v8.075c0,3.3,1.318,4.326,2.984,4.326c1.721,0,3.072-1.026,3.072-4.326
				v-8.075h1.562v8.019c0,4.4-2.001,5.893-4.634,5.893C60.073,196.653,58.072,195.16,58.072,190.759z"/>
			<path fill="#FFFFFF" d="M70.789,182.74h1.685l4.687,8.616l1.369,2.815h0.089c-0.089-1.38-0.212-2.909-0.212-4.326v-7.105h1.545
				v13.669h-1.668l-4.687-8.634l-1.386-2.817h-0.07c0.07,1.38,0.193,2.835,0.193,4.271v7.179h-1.545V182.74z"/>
			<path fill="#FFFFFF" d="M82.731,189.584c0-4.42,2.44-7.105,5.706-7.105c1.562,0,2.79,0.82,3.528,1.696l-0.878,1.119
				c-0.666-0.764-1.527-1.304-2.633-1.304c-2.44,0-4.055,2.126-4.055,5.538c0,3.45,1.545,5.614,4.002,5.614
				c1.229,0,2.16-0.579,2.984-1.529l0.895,1.081c-1.018,1.25-2.281,1.959-3.949,1.959C85.137,196.653,82.731,194.023,82.731,189.584
				z"/>
			<path fill="#FFFFFF" d="M94.674,182.74h1.632v5.725h6.003v-5.725h1.615v13.669h-1.615v-6.452h-6.003v6.452h-1.632
				C94.674,196.409,94.674,182.74,94.674,182.74z"/>
			<path fill="#FFFFFF" d="M120.838,196.653c-0.895-0.261-1.895-0.784-2.932-1.567c-0.982,0.951-2.194,1.567-3.721,1.567
				c-2.336,0-3.915-1.585-3.915-3.786c0-1.828,1.212-2.984,2.528-3.954c-0.527-1.101-0.843-2.2-0.843-3.189
				c0-1.828,1.193-3.245,2.967-3.245c1.597,0,2.527,1.119,2.527,2.704c0,1.79-1.474,2.946-2.896,4.047
				c0.842,1.417,2.035,2.797,3.265,3.86c0.808-1.119,1.422-2.48,1.825-4.047h1.475c-0.492,1.808-1.229,3.468-2.247,4.886
				c0.86,0.651,1.685,1.099,2.404,1.304L120.838,196.653z M114.379,195.29c0.878,0,1.721-0.428,2.457-1.099
				c-1.264-1.175-2.474-2.612-3.387-4.085c-0.913,0.784-1.615,1.603-1.615,2.666C111.833,194.284,112.94,195.29,114.379,195.29z
				 M113.957,188.111c1.176-0.84,2.194-1.678,2.194-2.891c0-0.802-0.35-1.511-1.228-1.511c-0.966,0-1.581,0.84-1.581,1.977
				C113.343,186.433,113.571,187.272,113.957,188.111z"/>
			<path fill="#FFFFFF" d="M126.341,194.619l0.966-1.175c0.93,1.026,2.228,1.698,3.563,1.698c1.685,0,2.703-0.896,2.703-2.238
				c0-1.398-0.93-1.846-2.141-2.423l-1.861-0.858c-1.193-0.542-2.616-1.511-2.616-3.506c0-2.108,1.721-3.637,4.055-3.637
				c1.527,0,2.879,0.689,3.792,1.696l-0.86,1.101c-0.79-0.784-1.738-1.286-2.932-1.286c-1.456,0-2.404,0.784-2.404,2.013
				c0,1.324,1.123,1.828,2.124,2.275l1.842,0.84c1.492,0.689,2.651,1.623,2.651,3.655c0,2.164-1.685,3.88-4.371,3.88
				C129.027,196.653,127.464,195.869,126.341,194.619z"/>
			<path fill="#FFFFFF" d="M137.757,182.74h3.669c2.896,0,4.827,1.025,4.827,4.009c0,2.891-1.931,4.233-4.74,4.233h-2.124v5.427
				h-1.632V182.74z M141.303,189.584c2.264,0,3.335-0.876,3.335-2.835c0-1.975-1.141-2.61-3.405-2.61h-1.844v5.445H141.303z"/>
			<path fill="#FFFFFF" d="M153.773,192.232h-4.705l-1.246,4.177h-1.649l4.371-13.669h1.808l4.371,13.669H155L153.773,192.232z
				 M153.368,190.852l-0.615-2.088c-0.473-1.549-0.878-3.04-1.298-4.625h-0.071c-0.403,1.603-0.825,3.076-1.281,4.625l-0.632,2.088
				H153.368z"/>
			<path fill="#FFFFFF" d="M157.605,189.584c0-4.42,2.44-7.105,5.706-7.105c1.562,0,2.79,0.82,3.528,1.696l-0.878,1.119
				c-0.666-0.764-1.527-1.304-2.633-1.304c-2.44,0-4.055,2.126-4.055,5.538c0,3.45,1.545,5.614,4.002,5.614
				c1.229,0,2.16-0.579,2.984-1.529l0.895,1.081c-1.018,1.25-2.281,1.959-3.949,1.959
				C160.01,196.653,157.605,194.023,157.605,189.584z"/>
			<path fill="#FFFFFF" d="M169.547,182.74h7.425v1.455h-5.793v4.288h4.88v1.474h-4.88v4.979h5.986v1.473h-7.618L169.547,182.74
				L169.547,182.74z"/>
		</g>
	</g>
</g>
</svg>
